<svg width="54" height="54" viewBox="0 0 54 54" fill="none" xmlns="http://www.w3.org/2000/svg">
<rect width="54" height="54" rx="27" fill="#6282E1"/>
<path d="M18.25 30.75H17C16.337 30.75 15.7011 30.4866 15.2322 30.0178C14.7634 29.5489 14.5 28.913 14.5 28.25V17C14.5 16.337 14.7634 15.7011 15.2322 15.2322C15.7011 14.7634 16.337 14.5 17 14.5H28.25C28.913 14.5 29.5489 14.7634 30.0178 15.2322C30.4866 15.7011 30.75 16.337 30.75 17V18.25M25.75 23.25H37C38.3807 23.25 39.5 24.3693 39.5 25.75V37C39.5 38.3807 38.3807 39.5 37 39.5H25.75C24.3693 39.5 23.25 38.3807 23.25 37V25.75C23.25 24.3693 24.3693 23.25 25.75 23.25Z" stroke="white" stroke-width="2" stroke-linecap="round" stroke-linejoin="round"/>
</svg>
