<svg width="40" height="40" viewBox="0 0 40 40" fill="none" xmlns="http://www.w3.org/2000/svg">
<path d="M23.4191 11.6309C23.9575 11.0923 24.6807 10.7787 25.4419 10.7536C26.2031 10.7285 26.9453 10.9939 27.5181 11.4959L27.6621 11.6309L28.3691 12.3379C28.9074 12.8763 29.2208 13.5993 29.2459 14.3602C29.271 15.1212 29.0058 15.8632 28.5041 16.4359L28.3691 16.5799L17.1571 27.7929C16.9985 27.9514 16.8065 28.0724 16.5951 28.1469L16.4331 28.1939L11.9791 29.2219C11.823 29.2579 11.6606 29.256 11.5055 29.2163C11.3503 29.1766 11.207 29.1003 11.0874 28.9937C10.9679 28.8871 10.8757 28.7534 10.8186 28.6038C10.7614 28.4542 10.741 28.293 10.7591 28.1339L10.7791 28.0209L11.8061 23.5659C11.8568 23.3474 11.9559 23.143 12.0961 22.9679L12.2071 22.8429L23.4191 11.6309ZM22.7121 15.1659L13.722 24.1559L13.0861 26.9139L15.8441 26.2769L24.8341 17.2869L22.7121 15.1659ZM26.2481 13.0449C26.0759 12.8727 25.8468 12.7693 25.6037 12.754C25.3607 12.7387 25.1205 12.8126 24.9281 12.9619L24.8341 13.0449L24.1261 13.7519L26.2481 15.8729L26.955 15.1659C27.1272 14.9937 27.2307 14.7646 27.2459 14.5216C27.2612 14.2785 27.1873 14.0383 27.038 13.8459L26.955 13.7519L26.2481 13.0449Z" fill="#1F1F1F"/>
</svg>
