<svg width="64" height="64" viewBox="0 0 64 64" fill="none" xmlns="http://www.w3.org/2000/svg">
<path d="M58.6666 15.9998C58.6666 13.0665 56.2666 10.6665 53.3332 10.6665H10.6666C7.73325 10.6665 5.33325 13.0665 5.33325 15.9998M58.6666 15.9998V47.9998C58.6666 50.9332 56.2666 53.3332 53.3332 53.3332H10.6666C7.73325 53.3332 5.33325 50.9332 5.33325 47.9998V15.9998M58.6666 15.9998L31.9999 34.6665L5.33325 15.9998" stroke="#D9D9D9" stroke-width="3" stroke-linecap="round" stroke-linejoin="round"/>
<path d="M41.0218 25.1637C40.5006 24.6256 39.8816 24.1987 39.2005 23.9075C38.5193 23.6162 37.7891 23.4663 37.0518 23.4663C36.3144 23.4663 35.5843 23.6162 34.9031 23.9075C34.2219 24.1987 33.603 24.6256 33.0817 25.1637L31.9999 26.28L30.9181 25.1637C29.8651 24.0772 28.4371 23.4669 26.948 23.4669C25.4589 23.4669 24.0309 24.0772 22.9779 25.1637C21.925 26.2502 21.3335 27.7238 21.3335 29.2603C21.3335 30.7968 21.925 32.2704 22.9779 33.3569L31.9999 42.6663L41.0218 33.3569C41.5433 32.819 41.957 32.1804 42.2393 31.4775C42.5215 30.7746 42.6668 30.0212 42.6668 29.2603C42.6668 28.4994 42.5215 27.746 42.2393 27.0431C41.957 26.3402 41.5433 25.7016 41.0218 25.1637Z" fill="white" stroke="#D9D9D9" stroke-width="3" stroke-linecap="round" stroke-linejoin="round"/>
</svg>
