<svg width="31" height="31" viewBox="0 0 31 31" fill="none" xmlns="http://www.w3.org/2000/svg">
<path d="M13 16.75C13.5368 17.4676 14.2217 18.0614 15.0082 18.4911C15.7947 18.9208 16.6644 19.1764 17.5583 19.2404C18.4522 19.3044 19.3495 19.1754 20.1892 18.8622C21.0289 18.549 21.7914 18.0588 22.425 17.425L26.175 13.675C27.3135 12.4962 27.9435 10.9174 27.9292 9.2787C27.915 7.63997 27.2577 6.07239 26.0989 4.91359C24.9401 3.75479 23.3725 3.09748 21.7338 3.08324C20.095 3.069 18.5163 3.69897 17.3375 4.83746L15.1875 6.97496M18 14.25C17.4632 13.5323 16.7783 12.9385 15.9918 12.5088C15.2053 12.0791 14.3356 11.8236 13.4417 11.7595C12.5478 11.6955 11.6505 11.8245 10.8108 12.1377C9.97113 12.451 9.20861 12.9411 8.57501 13.575L4.82501 17.325C3.68652 18.5037 3.05655 20.0825 3.07079 21.7212C3.08503 23.3599 3.74234 24.9275 4.90114 26.0863C6.05994 27.2451 7.62752 27.9024 9.26625 27.9167C10.905 27.9309 12.4837 27.3009 13.6625 26.1625L15.8 24.025" stroke="#6282E1" stroke-width="3" stroke-linecap="round" stroke-linejoin="round"/>
</svg>
