<svg width="31" height="30" viewBox="0 0 31 30" fill="none" xmlns="http://www.w3.org/2000/svg">
<path d="M12.9998 16.25C13.5366 16.9676 14.2215 17.5614 15.0079 17.9911C15.7944 18.4208 16.6641 18.6764 17.5581 18.7404C18.452 18.8044 19.3492 18.6754 20.1889 18.3622C21.0286 18.049 21.7912 17.5588 22.4248 16.925L26.1748 13.175C27.3133 11.9962 27.9432 10.4174 27.929 8.7787C27.9147 7.13997 27.2574 5.57239 26.0986 4.41359C24.9398 3.25479 23.3722 2.59748 21.7335 2.58324C20.0948 2.569 18.516 3.19897 17.3373 4.33746L15.1873 6.47496M17.9998 13.75C17.4629 13.0323 16.7781 12.4385 15.9916 12.0088C15.2051 11.5791 14.3354 11.3236 13.4414 11.2595C12.5475 11.1955 11.6503 11.3245 10.8106 11.6377C9.97088 11.951 9.20837 12.4411 8.57476 13.075L4.82476 16.825C3.68627 18.0037 3.05631 19.5825 3.07055 21.2212C3.08479 22.8599 3.74209 24.4275 4.9009 25.5863C6.0597 26.7451 7.62727 27.4024 9.266 27.4167C10.9047 27.4309 12.4835 26.8009 13.6623 25.6625L15.7998 23.525" stroke="#8F8F8F" stroke-width="3" stroke-linecap="round" stroke-linejoin="round"/>
</svg>
