<svg width="118" height="18" viewBox="0 0 118 18" fill="none" xmlns="http://www.w3.org/2000/svg">
<path d="M18.456 15.82V7.084C18.456 5.332 17.568 4.42 15.912 4.42C14.304 4.42 13.392 5.5 13.392 7.132V15.868C13.392 17.092 12.6 17.716 11.568 17.716C10.512 17.716 9.744 17.092 9.744 15.868V7.132C9.744 5.5 8.856 4.42 7.248 4.42C5.592 4.42 4.704 5.332 4.704 7.084V15.82C4.704 17.02 3.816 17.716 2.808 17.716C1.752 17.716 0.864 17.02 0.864 15.82V7.204C0.864 2.764 2.808 0.603999 6.432 0.603999C9.192 0.603999 10.872 1.828 11.568 3.484C12.264 1.828 13.92 0.603999 16.656 0.603999C20.28 0.603999 22.32 2.764 22.32 7.204V15.82C22.32 17.02 21.432 17.716 20.376 17.716C19.368 17.716 18.456 17.02 18.456 15.82ZM31.8443 17.98C26.9723 17.98 23.7563 14.572 23.7563 9.148C23.7563 3.748 26.9723 0.603999 31.8443 0.603999C36.7403 0.603999 39.9563 3.748 39.9563 9.148C39.9563 14.572 36.7403 17.98 31.8443 17.98ZM31.8443 13.948C34.5083 13.948 36.2843 12.028 36.2843 9.148C36.2843 6.292 34.5083 4.396 31.8443 4.396C29.2043 4.396 27.4523 6.292 27.4523 9.148C27.4523 12.028 29.2043 13.948 31.8443 13.948ZM53.7632 17.5H48.8192C47.3312 17.5 46.4192 16.876 46.4192 15.58C46.4192 14.26 47.3792 13.66 48.8192 13.66H51.2192C50.6672 11.284 49.0352 7.084 47.8832 5.74C46.5872 7.54 44.9312 11.62 44.1152 15.028C43.7072 16.756 43.2752 17.692 41.9312 17.692C40.5152 17.692 39.9872 16.804 39.9872 15.772C39.9872 14.404 40.7552 11.884 41.8352 9.244C43.1312 6.076 45.3632 0.844 47.8592 0.844C50.3552 0.844 52.5872 6.052 53.8592 9.244C54.9152 11.86 55.6832 14.284 55.6832 15.7C55.6832 16.78 55.2272 17.5 53.7632 17.5ZM80.2607 15.82V7.084C80.2607 5.332 79.3727 4.42 77.7167 4.42C76.1087 4.42 75.1967 5.5 75.1967 7.132V15.868C75.1967 17.092 74.4047 17.716 73.3727 17.716C72.3167 17.716 71.5487 17.092 71.5487 15.868V7.132C71.5487 5.5 70.6607 4.42 69.0527 4.42C67.3967 4.42 66.5087 5.332 66.5087 7.084V15.82C66.5087 17.02 65.6207 17.716 64.6127 17.716C63.5567 17.716 62.6687 17.02 62.6687 15.82V7.204C62.6687 2.764 64.6127 0.603999 68.2367 0.603999C70.9967 0.603999 72.6767 1.828 73.3727 3.484C74.0687 1.828 75.7247 0.603999 78.4607 0.603999C82.0847 0.603999 84.1247 2.764 84.1247 7.204V15.82C84.1247 17.02 83.2367 17.716 82.1807 17.716C81.1727 17.716 80.2607 17.02 80.2607 15.82ZM93.6489 17.98C88.7769 17.98 85.5609 14.572 85.5609 9.148C85.5609 3.748 88.7769 0.603999 93.6489 0.603999C98.5449 0.603999 101.761 3.748 101.761 9.148C101.761 14.572 98.5449 17.98 93.6489 17.98ZM93.6489 13.948C96.3129 13.948 98.0889 12.028 98.0889 9.148C98.0889 6.292 96.3129 4.396 93.6489 4.396C91.0089 4.396 89.2569 6.292 89.2569 9.148C89.2569 12.028 91.0089 13.948 93.6489 13.948ZM115.568 17.5H110.624C109.136 17.5 108.224 16.876 108.224 15.58C108.224 14.26 109.184 13.66 110.624 13.66H113.024C112.472 11.284 110.84 7.084 109.688 5.74C108.392 7.54 106.736 11.62 105.92 15.028C105.512 16.756 105.08 17.692 103.736 17.692C102.32 17.692 101.792 16.804 101.792 15.772C101.792 14.404 102.56 11.884 103.64 9.244C104.936 6.076 107.168 0.844 109.664 0.844C112.16 0.844 114.392 6.052 115.664 9.244C116.72 11.86 117.488 14.284 117.488 15.7C117.488 16.78 117.032 17.5 115.568 17.5Z" fill="url(#paint0_linear_2000_17590)"/>
<defs>
<linearGradient id="paint0_linear_2000_17590" x1="11.3083" y1="-4.5" x2="12.9866" y2="31.4598" gradientUnits="userSpaceOnUse">
<stop stop-color="#6282E1"/>
<stop offset="1" stop-color="#FEC3FF"/>
</linearGradient>
</defs>
</svg>
