<svg width="55" height="55" viewBox="0 0 55 55" fill="none" xmlns="http://www.w3.org/2000/svg">
<rect width="55" height="55" rx="20" fill="url(#paint0_linear_2048_58260)"/>
<path d="M21.766 31.02V25.924C21.766 24.902 21.248 24.37 20.282 24.37C19.344 24.37 18.812 25 18.812 25.952V31.048C18.812 31.762 18.35 32.126 17.748 32.126C17.132 32.126 16.684 31.762 16.684 31.048V25.952C16.684 25 16.166 24.37 15.228 24.37C14.262 24.37 13.744 24.902 13.744 25.924V31.02C13.744 31.72 13.226 32.126 12.638 32.126C12.022 32.126 11.504 31.72 11.504 31.02V25.994C11.504 23.404 12.638 22.144 14.752 22.144C16.362 22.144 17.342 22.858 17.748 23.824C18.154 22.858 19.12 22.144 20.716 22.144C22.83 22.144 24.02 23.404 24.02 25.994V31.02C24.02 31.72 23.502 32.126 22.886 32.126C22.298 32.126 21.766 31.72 21.766 31.02ZM29.5758 32.28C26.7338 32.28 24.8578 30.292 24.8578 27.128C24.8578 23.978 26.7338 22.144 29.5758 22.144C32.4318 22.144 34.3078 23.978 34.3078 27.128C34.3078 30.292 32.4318 32.28 29.5758 32.28ZM29.5758 29.928C31.1298 29.928 32.1658 28.808 32.1658 27.128C32.1658 25.462 31.1298 24.356 29.5758 24.356C28.0358 24.356 27.0138 25.462 27.0138 27.128C27.0138 28.808 28.0358 29.928 29.5758 29.928ZM42.3619 32H39.4779C38.6099 32 38.0779 31.636 38.0779 30.88C38.0779 30.11 38.6379 29.76 39.4779 29.76H40.8779C40.5559 28.374 39.6039 25.924 38.9319 25.14C38.1759 26.19 37.2099 28.57 36.7339 30.558C36.4959 31.566 36.2439 32.112 35.4599 32.112C34.6339 32.112 34.3259 31.594 34.3259 30.992C34.3259 30.194 34.7739 28.724 35.4039 27.184C36.1599 25.336 37.4619 22.284 38.9179 22.284C40.3739 22.284 41.6759 25.322 42.4179 27.184C43.0339 28.71 43.4819 30.124 43.4819 30.95C43.4819 31.58 43.2159 32 42.3619 32Z" fill="white"/>
<defs>
<linearGradient id="paint0_linear_2048_58260" x1="5.27083" y1="2.74165e-07" x2="17.7984" y2="65.9692" gradientUnits="userSpaceOnUse">
<stop stop-color="#6282E1"/>
<stop offset="1" stop-color="#FEC3FF"/>
</linearGradient>
</defs>
</svg>
