<svg width="35" height="35" viewBox="0 0 35 35" fill="none" xmlns="http://www.w3.org/2000/svg">
<path d="M31.2564 7.08897L22.5064 29.6931C22.4198 29.917 22.2793 30.1161 22.0974 30.2726C21.9155 30.4292 21.6977 30.5384 21.4634 30.5907C21.2291 30.6429 20.9856 30.6365 20.7544 30.572C20.5232 30.5075 20.3115 30.387 20.138 30.221L15.2059 25.5033L12.1814 28.5265C12.0793 28.6282 11.9494 28.6974 11.808 28.7254C11.6666 28.7533 11.5202 28.7388 11.3871 28.6835C11.254 28.6283 11.1402 28.5349 11.0602 28.415C10.9802 28.2952 10.9374 28.1543 10.9374 28.0102V21.42L3.36719 14.1794C3.17936 13.9997 3.04297 13.773 2.97216 13.5229C2.90134 13.2728 2.89866 13.0083 2.96439 12.7568C3.03013 12.5053 3.16189 12.276 3.34604 12.0925C3.53019 11.9091 3.76003 11.7781 4.01177 11.7133L29.5326 5.15084C29.7921 5.08438 30.0648 5.09065 30.3209 5.16897C30.5771 5.24729 30.8067 5.39464 30.9846 5.59485C31.1625 5.79506 31.2819 6.0404 31.3295 6.30395C31.3772 6.56751 31.3514 6.83912 31.2549 7.08897H31.2564ZM27.7082 8.75147L11.7132 19.18L14.2434 21.6008L27.7082 8.75147Z" fill="#6282E1"/>
</svg>
