<svg width="35" height="35" viewBox="0 0 35 35" fill="none" xmlns="http://www.w3.org/2000/svg">
<path d="M29.5313 5.15094C29.7909 5.08379 30.0641 5.08955 30.3207 5.16757C30.5773 5.2456 30.8074 5.39287 30.9857 5.5932C31.164 5.79353 31.2836 6.03915 31.3314 6.30306C31.3792 6.56697 31.3533 6.83894 31.2565 7.08907L22.5065 29.6932C22.4199 29.9171 22.2795 30.1162 22.0975 30.2727C21.9156 30.4293 21.6978 30.5385 21.4635 30.5908C21.2293 30.643 20.9857 30.6366 20.7545 30.5721C20.5233 30.5076 20.3116 30.3871 20.1381 30.2211L15.2061 25.5034L13.4517 27.2564C12.5242 28.1839 10.9375 27.5276 10.9375 26.2151V21.4201L3.36731 14.1795C3.17948 13.9998 3.0431 13.7732 2.97228 13.523C2.90146 13.2729 2.89878 13.0084 2.96452 12.7569C3.03025 12.5054 3.16202 12.2761 3.34617 12.0926C3.53031 11.9092 3.76016 11.7782 4.01189 11.7134L29.5313 5.15094ZM26.4484 11.4291L14.7846 21.0643L20.5742 26.603L26.4484 11.4291ZM24.1471 9.54782L7.27856 13.8834L12.6627 19.0314L24.1471 9.5449V9.54782Z" fill="#E1E1E1"/>
</svg>
