<svg width="31" height="31" viewBox="0 0 31 31" fill="none" xmlns="http://www.w3.org/2000/svg">
<path d="M25.5 4.25C26.1307 4.2498 26.7382 4.48801 27.2007 4.91687C27.6632 5.34573 27.9464 5.93356 27.9938 6.5625L28 6.75V24.25C28.0002 24.8807 27.762 25.4882 27.3331 25.9507C26.9043 26.4132 26.3164 26.6964 25.6875 26.7438L25.5 26.75H5.5C4.86928 26.7502 4.26179 26.512 3.79932 26.0831C3.33684 25.6543 3.05355 25.0664 3.00625 24.4375L3 24.25V6.75C2.9998 6.11928 3.23801 5.51179 3.66687 5.04932C4.09573 4.58684 4.68356 4.30355 5.3125 4.25625L5.5 4.25H25.5ZM12.8487 15.5625L5.7775 22.6338C5.69522 22.7163 5.60182 22.787 5.5 22.8438V24.25H25.5V22.8438C25.3982 22.787 25.3048 22.7163 25.2225 22.6338L21.6875 19.1L20.8037 19.9837L21.0625 20.2425C21.1786 20.3586 21.2706 20.4965 21.3334 20.6482C21.3962 20.7999 21.4284 20.9625 21.4284 21.1267C21.4283 21.2909 21.3959 21.4534 21.333 21.6051C21.2702 21.7568 21.178 21.8946 21.0619 22.0106C20.9457 22.1267 20.8079 22.2187 20.6562 22.2815C20.5045 22.3443 20.3419 22.3766 20.1777 22.3765C20.0135 22.3764 19.8509 22.344 19.6993 22.2812C19.5476 22.2183 19.4098 22.1261 19.2938 22.01L12.85 15.5625H12.8487ZM25.5 6.75H5.5V19.375L11.7437 13.1325C12.0159 12.8604 12.379 12.6983 12.7632 12.6773C13.1475 12.6563 13.5261 12.7779 13.8263 13.0188L13.9525 13.1312L19.035 18.215L20.5825 16.6675C20.8547 16.3954 21.2177 16.2333 21.602 16.2123C21.9863 16.1913 22.3648 16.3129 22.665 16.5538L22.7925 16.6675L25.5 19.3762V6.75ZM19.875 9.25C20.3723 9.25 20.8492 9.44754 21.2008 9.79917C21.5525 10.1508 21.75 10.6277 21.75 11.125C21.75 11.6223 21.5525 12.0992 21.2008 12.4508C20.8492 12.8025 20.3723 13 19.875 13C19.3777 13 18.9008 12.8025 18.5492 12.4508C18.1975 12.0992 18 11.6223 18 11.125C18 10.6277 18.1975 10.1508 18.5492 9.79917C18.9008 9.44754 19.3777 9.25 19.875 9.25Z" fill="#6282E1"/>
</svg>
