<svg width="31" height="30" viewBox="0 0 31 30" fill="none" xmlns="http://www.w3.org/2000/svg">
<path d="M25.5 3.75C26.1307 3.7498 26.7382 3.98801 27.2007 4.41687C27.6632 4.84573 27.9464 5.43356 27.9938 6.0625L28 6.25V23.75C28.0002 24.3807 27.762 24.9882 27.3331 25.4507C26.9043 25.9132 26.3164 26.1964 25.6875 26.2438L25.5 26.25H5.5C4.86928 26.2502 4.26179 26.012 3.79932 25.5831C3.33684 25.1543 3.05355 24.5664 3.00625 23.9375L3 23.75V6.25C2.9998 5.61928 3.23801 5.01179 3.66687 4.54932C4.09573 4.08684 4.68356 3.80355 5.3125 3.75625L5.5 3.75H25.5ZM12.8487 15.0625L5.7775 22.1338C5.69522 22.2163 5.60182 22.287 5.5 22.3438V23.75H25.5V22.3438C25.3982 22.287 25.3048 22.2163 25.2225 22.1338L21.6875 18.6L20.8037 19.4837L21.0625 19.7425C21.1786 19.8586 21.2706 19.9965 21.3334 20.1482C21.3962 20.2999 21.4284 20.4625 21.4284 20.6267C21.4283 20.7909 21.3959 20.9534 21.333 21.1051C21.2702 21.2568 21.178 21.3946 21.0619 21.5106C20.9457 21.6267 20.8079 21.7187 20.6562 21.7815C20.5045 21.8443 20.3419 21.8766 20.1777 21.8765C20.0135 21.8764 19.8509 21.844 19.6993 21.7812C19.5476 21.7183 19.4098 21.6261 19.2938 21.51L12.85 15.0625H12.8487ZM25.5 6.25H5.5V18.875L11.7437 12.6325C12.0159 12.3604 12.379 12.1983 12.7632 12.1773C13.1475 12.1563 13.5261 12.2779 13.8263 12.5188L13.9525 12.6312L19.035 17.715L20.5825 16.1675C20.8547 15.8954 21.2177 15.7333 21.602 15.7123C21.9863 15.6913 22.3648 15.8129 22.665 16.0538L22.7925 16.1675L25.5 18.8762V6.25ZM19.875 8.75C20.3723 8.75 20.8492 8.94754 21.2008 9.29917C21.5525 9.65081 21.75 10.1277 21.75 10.625C21.75 11.1223 21.5525 11.5992 21.2008 11.9508C20.8492 12.3025 20.3723 12.5 19.875 12.5C19.3777 12.5 18.9008 12.3025 18.5492 11.9508C18.1975 11.5992 18 11.1223 18 10.625C18 10.1277 18.1975 9.65081 18.5492 9.29917C18.9008 8.94754 19.3777 8.75 19.875 8.75Z" fill="#8F8F8F"/>
</svg>
