<svg width="35" height="35" viewBox="0 0 35 35" fill="none" xmlns="http://www.w3.org/2000/svg">
<g clip-path="url(#clip0_2539_7141)">
<path d="M16.7709 4.375C18.2045 4.37511 19.5987 4.84445 20.7405 5.71133C21.8823 6.57821 22.7089 7.79499 23.0942 9.17583L23.1701 9.47479L25.8972 8.79375C26.0965 8.74414 26.3041 8.73719 26.5063 8.77337C26.7084 8.80954 26.9007 8.88803 27.0705 9.00368C27.2402 9.11933 27.3837 9.26954 27.4913 9.44447C27.599 9.61939 27.6685 9.81509 27.6953 10.0188L27.7084 10.2083V12.8479C28.5306 13.6362 29.2043 14.5658 29.6976 15.5925L29.8988 16.0417H30.6251C30.9823 16.0417 31.327 16.1729 31.594 16.4102C31.8609 16.6476 32.0314 16.9746 32.0732 17.3294L32.0834 17.5V21.875C32.0834 22.115 32.0242 22.3514 31.911 22.563C31.7978 22.7747 31.6341 22.9551 31.4345 23.0883L31.277 23.1788L29.5736 24.0319C28.8763 25.381 27.8662 26.5436 26.6278 27.4225L26.2501 27.6763V29.1667C26.25 29.5239 26.1189 29.8686 25.8815 30.1355C25.6442 30.4025 25.3171 30.573 24.9624 30.6148L24.7917 30.625H20.4167C20.0596 30.625 19.7148 30.4938 19.4479 30.2565C19.1809 30.0191 19.0104 29.692 18.9686 29.3373L18.9584 29.1667H17.5001C17.5 29.5239 17.3689 29.8686 17.1315 30.1355C16.8942 30.4025 16.5671 30.573 16.2124 30.6148L16.0417 30.625H11.6667C11.3096 30.625 10.9648 30.4938 10.6979 30.2565C10.4309 30.0191 10.2604 29.692 10.2186 29.3373L10.2084 29.1667V27.6763C9.15489 27.0027 8.24485 26.1276 7.53058 25.1013C6.81631 24.0749 6.3119 22.9175 6.04633 21.6956C5.18639 21.4397 4.42585 20.9257 3.86766 20.2233C3.30946 19.5208 2.98057 18.6639 2.9255 17.7683L2.91675 17.5V16.7708C2.91716 16.3991 3.05949 16.0416 3.31465 15.7713C3.56982 15.5011 3.91855 15.3384 4.28962 15.3166C4.66068 15.2948 5.02605 15.4156 5.31109 15.6541C5.59612 15.8927 5.77931 16.2311 5.82321 16.6002L5.83341 16.7708V17.5C5.83341 17.7158 5.88008 17.9215 5.96466 18.1052C6.18726 16.7923 6.68381 15.541 7.42202 14.4326C8.16022 13.3243 9.12353 12.3839 10.2492 11.6725C10.1458 10.7545 10.2373 9.82491 10.5179 8.94468C10.7984 8.06445 11.2616 7.25337 11.8773 6.56452C12.4929 5.87566 13.247 5.32455 14.0903 4.94724C14.9336 4.56994 15.8471 4.37494 16.7709 4.375ZM24.7917 12.075L20.7697 13.0813L20.5947 13.1148L20.4167 13.125H15.3126C13.838 13.124 12.4061 13.6197 11.2477 14.5321C10.0893 15.4445 9.27194 16.7204 8.9274 18.1541C8.58287 19.5879 8.73123 21.0959 9.34859 22.435C9.96594 23.7741 11.0163 24.8663 12.3303 25.5354C12.542 25.6437 12.724 25.802 12.8605 25.9967C12.997 26.1914 13.0838 26.4166 13.1134 26.6525L13.1251 26.8333V27.7083H14.5834C14.5835 27.3511 14.7146 27.0064 14.952 26.7395C15.1893 26.4725 15.5164 26.302 15.8711 26.2602L16.0417 26.25H20.4167C20.7739 26.25 21.1187 26.3812 21.3856 26.6185C21.6525 26.8559 21.8231 27.183 21.8649 27.5377L21.8751 27.7083H23.3334V26.8333C23.3335 26.5648 23.4078 26.3015 23.5481 26.0725C23.6883 25.8435 23.8891 25.6576 24.1282 25.5354C25.4664 24.8503 26.5304 23.7287 27.144 22.3563C27.2534 22.1107 27.4285 21.9003 27.6501 21.7481L27.8236 21.646L29.1667 20.9738V18.9583H28.8649C28.5473 18.9582 28.2385 18.8545 27.9853 18.6629C27.7321 18.4713 27.5483 18.2022 27.462 17.8967C27.0971 16.6138 26.3504 15.4723 25.3211 14.6242C25.0355 14.3882 24.8504 14.0524 24.8034 13.685L24.7917 13.4998V12.075ZM23.3334 16.0417C23.7202 16.0417 24.0911 16.1953 24.3646 16.4688C24.6381 16.7423 24.7917 17.1132 24.7917 17.5C24.7917 17.8868 24.6381 18.2577 24.3646 18.5312C24.0911 18.8047 23.7202 18.9583 23.3334 18.9583C22.9466 18.9583 22.5757 18.8047 22.3022 18.5312C22.0287 18.2577 21.8751 17.8868 21.8751 17.5C21.8751 17.1132 22.0287 16.7423 22.3022 16.4688C22.5757 16.1953 22.9466 16.0417 23.3334 16.0417ZM16.7709 7.29167C15.8876 7.29166 15.0343 7.61235 14.3696 8.19414C13.705 8.77593 13.2741 9.57924 13.1572 10.4548C13.8639 10.2907 14.5871 10.208 15.3126 10.2083H20.2374L20.3395 10.1835C20.1665 9.36536 19.7176 8.63149 19.0679 8.10498C18.4181 7.57847 17.6072 7.29132 16.7709 7.29167Z" fill="#E1E1E1"/>
</g>
<defs>
<clipPath id="clip0_2539_7141">
<rect width="35" height="35" fill="white"/>
</clipPath>
</defs>
</svg>
