<svg width="35" height="35" viewBox="0 0 35 35" fill="none" xmlns="http://www.w3.org/2000/svg">
<path fill-rule="evenodd" clip-rule="evenodd" d="M16.7708 4.375C18.2044 4.37511 19.5985 4.84445 20.7403 5.71133C21.8821 6.57821 22.7088 7.79499 23.0941 9.17583L23.17 9.47479L25.897 8.79375C26.0964 8.74414 26.3039 8.73719 26.5061 8.77337C26.7083 8.80954 26.9006 8.88803 27.0704 9.00368C27.2401 9.11933 27.3835 9.26954 27.4912 9.44447C27.5989 9.61939 27.6684 9.81509 27.6952 10.0188L27.7083 10.2083V12.8479C28.5305 13.6362 29.2042 14.5658 29.6975 15.5925L29.8987 16.0417H30.625C30.9822 16.0417 31.3269 16.1729 31.5938 16.4102C31.8608 16.6476 32.0313 16.9746 32.0731 17.3294L32.0833 17.5V21.875C32.0833 22.115 32.0241 22.3514 31.9109 22.563C31.7977 22.7747 31.634 22.9551 31.4343 23.0883L31.2768 23.1788L29.5735 24.0319C28.8762 25.381 27.8661 26.5436 26.6277 27.4225L26.25 27.6763V29.1667C26.2499 29.5239 26.1188 29.8686 25.8814 30.1355C25.6441 30.4025 25.317 30.573 24.9622 30.6148L24.7916 30.625H20.4166C20.0594 30.625 19.7147 30.4938 19.4477 30.2565C19.1808 30.0191 19.0103 29.692 18.9685 29.3373L18.9583 29.1667H17.5C17.4999 29.5239 17.3688 29.8686 17.1314 30.1355C16.8941 30.4025 16.567 30.573 16.2122 30.6148L16.0416 30.625H11.6666C11.3094 30.625 10.9647 30.4938 10.6977 30.2565C10.4308 30.0191 10.2603 29.692 10.2185 29.3373L10.2083 29.1667V27.6763C9.15477 27.0027 8.24472 26.1276 7.53046 25.1013C6.81619 24.0749 6.31178 22.9175 6.04621 21.6956C5.18627 21.4397 4.42573 20.9257 3.86754 20.2233C3.30934 19.5208 2.98045 18.6639 2.92538 17.7683L2.91663 17.5V16.7708C2.91704 16.3991 3.05937 16.0416 3.31453 15.7713C3.56969 15.5011 3.91843 15.3384 4.28949 15.3166C4.66055 15.2948 5.02593 15.4156 5.31097 15.6541C5.596 15.8927 5.77918 16.2311 5.82308 16.6002L5.83329 16.7708V17.5C5.83329 17.7158 5.87996 17.9215 5.96454 18.1052C6.18713 16.7923 6.68369 15.541 7.4219 14.4326C8.1601 13.3243 9.12341 12.3839 10.2491 11.6725C10.1457 10.7545 10.2372 9.82491 10.5177 8.94468C10.7983 8.06445 11.2615 7.25337 11.8771 6.56452C12.4928 5.87566 13.2469 5.32455 14.0902 4.94724C14.9335 4.56994 15.8469 4.37494 16.7708 4.375ZM23.3333 16.0417C22.9465 16.0417 22.5756 16.1953 22.3021 16.4688C22.0286 16.7423 21.875 17.1132 21.875 17.5C21.875 17.8868 22.0286 18.2577 22.3021 18.5312C22.5756 18.8047 22.9465 18.9583 23.3333 18.9583C23.7201 18.9583 24.091 18.8047 24.3645 18.5312C24.638 18.2577 24.7916 17.8868 24.7916 17.5C24.7916 17.1132 24.638 16.7423 24.3645 16.4688C24.091 16.1953 23.7201 16.0417 23.3333 16.0417ZM16.7708 7.29167C15.8875 7.29166 15.0342 7.61235 14.3695 8.19414C13.7048 8.77593 13.274 9.57924 13.157 10.4548C13.8638 10.2907 14.5869 10.208 15.3125 10.2083H20.2372L20.3393 10.1835C20.1664 9.36536 19.7174 8.63149 19.0677 8.10498C18.418 7.57847 17.6071 7.29132 16.7708 7.29167Z" fill="#6282E1"/>
</svg>
