<svg width="64" height="64" viewBox="0 0 64 64" fill="none" xmlns="http://www.w3.org/2000/svg">
<rect width="64" height="64" rx="32" fill="white"/>
<path d="M32 0C49.6731 0 64 14.3269 64 32C64 41.3098 60.022 49.6886 53.6758 55.5361C49.3583 48.0438 41.2683 43 32 43C22.7315 43 14.6407 48.0436 10.3232 55.5361C3.97735 49.6886 0 41.3096 0 32C0 14.3269 14.3269 0 32 0ZM32 12C24.8203 12 19 17.8203 19 25C19 32.1797 24.8203 38 32 38C39.1797 38 45 32.1797 45 25C45 17.8203 39.1797 12 32 12Z" fill="#C7D5FF"/>
</svg>
