<svg width="50" height="50" viewBox="0 0 50 50" fill="none" xmlns="http://www.w3.org/2000/svg">
<rect x="0.5" y="0.5" width="49" height="49" rx="24.5" fill="#EAEAEA"/>
<rect x="0.5" y="0.5" width="49" height="49" rx="24.5" stroke="#8F8F8F"/>
<path d="M30.4165 35.8337C29.5137 35.8337 28.7464 35.5177 28.1144 34.8857C27.4825 34.2538 27.1665 33.4864 27.1665 32.5837C27.1665 32.4753 27.1936 32.2225 27.2478 31.8253L19.6373 27.3837C19.3484 27.6545 19.0144 27.8666 18.6353 28.0201C18.2561 28.1736 17.8498 28.2503 17.4165 28.2503C16.5137 28.2503 15.7464 27.9344 15.1144 27.3024C14.4825 26.6705 14.1665 25.9031 14.1665 25.0003C14.1665 24.0975 14.4825 23.3302 15.1144 22.6982C15.7464 22.0663 16.5137 21.7503 17.4165 21.7503C17.8498 21.7503 18.2561 21.8271 18.6353 21.9805C19.0144 22.134 19.3484 22.3462 19.6373 22.617L27.2478 18.1753C27.2116 18.0489 27.1891 17.9271 27.18 17.8097C27.171 17.6923 27.1665 17.5614 27.1665 17.417C27.1665 16.5142 27.4825 15.7469 28.1144 15.1149C28.7464 14.483 29.5137 14.167 30.4165 14.167C31.3193 14.167 32.0866 14.483 32.7186 15.1149C33.3505 15.7469 33.6665 16.5142 33.6665 17.417C33.6665 18.3198 33.3505 19.0871 32.7186 19.7191C32.0866 20.351 31.3193 20.667 30.4165 20.667C29.9832 20.667 29.5769 20.5903 29.1978 20.4368C28.8186 20.2833 28.4846 20.0712 28.1957 19.8003L20.5853 24.242C20.6214 24.3684 20.6439 24.4903 20.653 24.6076C20.662 24.725 20.6665 24.8559 20.6665 25.0003C20.6665 25.1448 20.662 25.2757 20.653 25.393C20.6439 25.5104 20.6214 25.6323 20.5853 25.7587L28.1957 30.2003C28.4846 29.9295 28.8186 29.7173 29.1978 29.5639C29.5769 29.4104 29.9832 29.3337 30.4165 29.3337C31.3193 29.3337 32.0866 29.6496 32.7186 30.2816C33.3505 30.9135 33.6665 31.6809 33.6665 32.5837C33.6665 33.4864 33.3505 34.2538 32.7186 34.8857C32.0866 35.5177 31.3193 35.8337 30.4165 35.8337Z" fill="#8F8F8F"/>
</svg>
