<svg width="156" height="24" viewBox="0 0 156 24" fill="none" xmlns="http://www.w3.org/2000/svg">
<path d="M23.608 20.76V9.112C23.608 6.776 22.424 5.56 20.216 5.56C18.072 5.56 16.856 7 16.856 9.176V20.824C16.856 22.456 15.8 23.288 14.424 23.288C13.016 23.288 11.992 22.456 11.992 20.824V9.176C11.992 7 10.808 5.56 8.664 5.56C6.456 5.56 5.272 6.776 5.272 9.112V20.76C5.272 22.36 4.088 23.288 2.744 23.288C1.336 23.288 0.152 22.36 0.152 20.76V9.272C0.152 3.352 2.744 0.471998 7.576 0.471998C11.256 0.471998 13.496 2.104 14.424 4.312C15.352 2.104 17.56 0.471998 21.208 0.471998C26.04 0.471998 28.76 3.352 28.76 9.272V20.76C28.76 22.36 27.576 23.288 26.168 23.288C24.824 23.288 23.608 22.36 23.608 20.76ZM41.459 23.64C34.963 23.64 30.675 19.096 30.675 11.864C30.675 4.664 34.963 0.471998 41.459 0.471998C47.987 0.471998 52.275 4.664 52.275 11.864C52.275 19.096 47.987 23.64 41.459 23.64ZM41.459 18.264C45.011 18.264 47.379 15.704 47.379 11.864C47.379 8.056 45.011 5.528 41.459 5.528C37.939 5.528 35.603 8.056 35.603 11.864C35.603 15.704 37.939 18.264 41.459 18.264ZM70.6843 23H64.0923C62.1083 23 60.8923 22.168 60.8923 20.44C60.8923 18.68 62.1723 17.88 64.0923 17.88H67.2923C66.5563 14.712 64.3803 9.112 62.8443 7.32C61.1163 9.72 58.9083 15.16 57.8203 19.704C57.2763 22.008 56.7003 23.256 54.9083 23.256C53.0203 23.256 52.3163 22.072 52.3163 20.696C52.3163 18.872 53.3403 15.512 54.7803 11.992C56.5083 7.768 59.4843 0.792 62.8123 0.792C66.1403 0.792 69.1163 7.736 70.8123 11.992C72.2203 15.48 73.2443 18.712 73.2443 20.6C73.2443 22.04 72.6363 23 70.6843 23ZM106.014 20.76V9.112C106.014 6.776 104.83 5.56 102.622 5.56C100.478 5.56 99.2623 7 99.2623 9.176V20.824C99.2623 22.456 98.2063 23.288 96.8303 23.288C95.4223 23.288 94.3983 22.456 94.3983 20.824V9.176C94.3983 7 93.2143 5.56 91.0703 5.56C88.8623 5.56 87.6783 6.776 87.6783 9.112V20.76C87.6783 22.36 86.4943 23.288 85.1503 23.288C83.7423 23.288 82.5583 22.36 82.5583 20.76V9.272C82.5583 3.352 85.1503 0.471998 89.9823 0.471998C93.6623 0.471998 95.9023 2.104 96.8303 4.312C97.7583 2.104 99.9663 0.471998 103.614 0.471998C108.446 0.471998 111.166 3.352 111.166 9.272V20.76C111.166 22.36 109.982 23.288 108.574 23.288C107.23 23.288 106.014 22.36 106.014 20.76ZM123.865 23.64C117.369 23.64 113.081 19.096 113.081 11.864C113.081 4.664 117.369 0.471998 123.865 0.471998C130.393 0.471998 134.681 4.664 134.681 11.864C134.681 19.096 130.393 23.64 123.865 23.64ZM123.865 18.264C127.417 18.264 129.785 15.704 129.785 11.864C129.785 8.056 127.417 5.528 123.865 5.528C120.345 5.528 118.009 8.056 118.009 11.864C118.009 15.704 120.345 18.264 123.865 18.264ZM153.091 23H146.499C144.515 23 143.299 22.168 143.299 20.44C143.299 18.68 144.579 17.88 146.499 17.88H149.699C148.963 14.712 146.787 9.112 145.251 7.32C143.523 9.72 141.315 15.16 140.227 19.704C139.683 22.008 139.107 23.256 137.315 23.256C135.427 23.256 134.723 22.072 134.723 20.696C134.723 18.872 135.747 15.512 137.187 11.992C138.915 7.768 141.891 0.792 145.219 0.792C148.547 0.792 151.523 7.736 153.219 11.992C154.627 15.48 155.651 18.712 155.651 20.6C155.651 22.04 155.043 23 153.091 23Z" fill="url(#paint0_linear_1246_55632)"/>
<defs>
<linearGradient id="paint0_linear_1246_55632" x1="14.0458" y1="-6" x2="16.2117" y2="41.1229" gradientUnits="userSpaceOnUse">
<stop stop-color="#6282E1"/>
<stop offset="1" stop-color="#FEC3FF"/>
</linearGradient>
</defs>
</svg>
