<svg width="154" height="119" viewBox="0 0 154 119" fill="none" xmlns="http://www.w3.org/2000/svg">
<rect width="154" height="119" rx="14" fill="#1F1F1F"/>
<path d="M33.0709 57.158V49.904C33.0709 48.896 33.4489 48.482 34.2229 48.482H42.7909C43.5649 48.482 43.9429 48.896 43.9429 49.904V57.158C43.9429 58.166 43.5649 58.58 42.7909 58.58H34.2229C33.4489 58.58 33.0709 58.166 33.0709 57.158ZM34.3849 50.534V56.546C34.3849 56.996 34.4929 57.212 34.8709 57.212H42.1429C42.5209 57.212 42.6289 56.996 42.6289 56.546V50.534C42.6289 50.084 42.5209 49.868 42.1429 49.868H34.8709C34.4929 49.868 34.3849 50.084 34.3849 50.534ZM44.3389 64.394H32.6749C32.2609 64.394 32.0629 64.16 32.0629 63.692C32.0629 63.242 32.2609 63.008 32.6749 63.008H37.8409V60.218C37.8409 59.642 38.0749 59.3 38.5069 59.3C38.9389 59.3 39.1729 59.642 39.1729 60.218V63.008H44.3389C44.7529 63.008 44.9509 63.242 44.9509 63.692C44.9509 64.16 44.7529 64.394 44.3389 64.394ZM53.9997 53.018V59.894C53.9997 63.044 52.8837 64.61 50.4897 64.61C48.1317 64.61 46.9617 63.044 46.9617 59.912V53C46.9617 49.868 48.1317 48.302 50.4897 48.302C52.8837 48.302 53.9997 49.868 53.9997 53.018ZM48.2757 53V59.912C48.2757 62.27 49.0497 63.152 50.4897 63.152C51.8757 63.152 52.6677 62.27 52.6677 59.912V53C52.6677 50.642 51.8757 49.76 50.4897 49.76C49.0497 49.76 48.2757 50.642 48.2757 53ZM56.2497 63.836V49.166C56.2497 48.59 56.4837 48.248 56.9157 48.248C57.3657 48.248 57.5637 48.59 57.5637 49.166V54.926H59.1297C59.5437 54.926 59.7597 55.16 59.7597 55.628C59.7597 56.096 59.5437 56.33 59.1297 56.33H57.5637V63.836C57.5637 64.412 57.3657 64.754 56.9157 64.754C56.4837 64.754 56.2497 64.412 56.2497 63.836ZM62.0045 57.158V49.904C62.0045 48.896 62.3825 48.482 63.1565 48.482H71.7245C72.4985 48.482 72.8765 48.896 72.8765 49.904V57.158C72.8765 58.166 72.4985 58.58 71.7245 58.58H63.1565C62.3825 58.58 62.0045 58.166 62.0045 57.158ZM63.3185 50.534V56.546C63.3185 56.996 63.4265 57.212 63.8045 57.212H71.0765C71.4545 57.212 71.5625 56.996 71.5625 56.546V50.534C71.5625 50.084 71.4545 49.868 71.0765 49.868H63.8045C63.4265 49.868 63.3185 50.084 63.3185 50.534ZM73.2725 64.394H61.6085C61.1945 64.394 60.9965 64.16 60.9965 63.692C60.9965 63.242 61.1945 63.008 61.6085 63.008H66.7745V60.218C66.7745 59.642 67.0085 59.3 67.4405 59.3C67.8725 59.3 68.1065 59.642 68.1065 60.218V63.008H73.2725C73.6865 63.008 73.8845 63.242 73.8845 63.692C73.8845 64.16 73.6865 64.394 73.2725 64.394ZM82.9333 53.018V59.894C82.9333 63.044 81.8173 64.61 79.4233 64.61C77.0653 64.61 75.8953 63.044 75.8953 59.912V53C75.8953 49.868 77.0653 48.302 79.4233 48.302C81.8173 48.302 82.9333 49.868 82.9333 53.018ZM77.2093 53V59.912C77.2093 62.27 77.9833 63.152 79.4233 63.152C80.8093 63.152 81.6013 62.27 81.6013 59.912V53C81.6013 50.642 80.8093 49.76 79.4233 49.76C77.9833 49.76 77.2093 50.642 77.2093 53ZM85.1833 63.836V49.166C85.1833 48.59 85.4173 48.248 85.8493 48.248C86.2993 48.248 86.4973 48.59 86.4973 49.166V54.926H88.0633C88.4773 54.926 88.6933 55.16 88.6933 55.628C88.6933 56.096 88.4773 56.33 88.0633 56.33H86.4973V63.836C86.4973 64.412 86.2993 64.754 85.8493 64.754C85.4173 64.754 85.1833 64.412 85.1833 63.836ZM106.107 55.376H101.715V57.05H106.863C107.277 57.05 107.493 57.284 107.493 57.734C107.493 58.202 107.277 58.436 106.863 58.436H95.2355C94.8215 58.436 94.6235 58.202 94.6235 57.734C94.6235 57.284 94.8215 57.05 95.2355 57.05H100.401V55.376H96.0275C95.6135 55.376 95.4155 55.142 95.4155 54.674C95.4155 54.224 95.6135 53.99 96.0275 53.99H97.8815L97.6475 51.344V51.182C97.6475 50.822 97.7555 50.498 98.2055 50.444H98.3135C98.6015 50.444 98.8535 50.516 98.9075 51.218L99.1595 53.99H102.993L103.245 51.218C103.299 50.516 103.551 50.444 103.839 50.444H103.947C104.379 50.498 104.505 50.822 104.505 51.182V51.344L104.271 53.99H106.107C106.521 53.99 106.719 54.224 106.719 54.674C106.719 55.142 106.521 55.376 106.107 55.376ZM96.8735 60.974V62.702C96.8735 63.152 96.9815 63.368 97.3595 63.368H106.125C106.539 63.368 106.737 63.602 106.737 64.07C106.737 64.52 106.539 64.754 106.125 64.754H96.7115C95.9375 64.754 95.5595 64.34 95.5595 63.332V60.974C95.5595 60.398 95.7575 60.056 96.2075 60.056C96.6395 60.056 96.8735 60.398 96.8735 60.974ZM105.963 49.868H96.1715C95.7575 49.868 95.5595 49.634 95.5595 49.166C95.5595 48.716 95.7575 48.482 96.1715 48.482H105.963C106.377 48.482 106.575 48.716 106.575 49.166C106.575 49.634 106.377 49.868 105.963 49.868ZM111.412 50.552V52.928H120.142C120.556 52.928 120.754 53.162 120.754 53.63C120.754 54.098 120.556 54.332 120.142 54.332H111.412V56.708C111.412 57.158 111.52 57.374 111.898 57.374H120.52C120.934 57.374 121.132 57.608 121.132 58.094C121.132 58.58 120.934 58.76 120.52 58.76H111.25C110.476 58.76 110.098 58.346 110.098 57.338V49.904C110.098 48.896 110.476 48.482 111.25 48.482H120.43C120.844 48.482 121.042 48.716 121.042 49.166C121.042 49.652 120.844 49.886 120.43 49.886H111.898C111.52 49.886 111.412 50.102 111.412 50.552ZM121.366 64.394H109.702C109.288 64.394 109.09 64.16 109.09 63.692C109.09 63.242 109.288 63.008 109.702 63.008H121.366C121.78 63.008 121.978 63.242 121.978 63.692C121.978 64.16 121.78 64.394 121.366 64.394Z" fill="white"/>
</svg>
