<svg width="154" height="119" viewBox="0 0 154 119" fill="none" xmlns="http://www.w3.org/2000/svg">
<rect width="154" height="119" rx="14" fill="#1F1F1F"/>
<path d="M42.0201 65.272V66.424H27.7281V65.272H34.1361V61.456H29.4201V54.112H40.2561V61.456H35.5041V65.272H42.0201ZM30.7521 60.34H38.8881V55.228H30.7521V60.34ZM47.4607 54.004C49.7647 54.022 51.3847 56.128 51.3847 59.44C51.3847 62.788 49.7647 64.894 47.4607 64.912C45.1387 64.894 43.5007 62.788 43.5367 59.44C43.5007 56.128 45.1387 54.022 47.4607 54.004ZM44.8327 59.44C44.8327 61.996 45.9127 63.67 47.4607 63.652C49.0087 63.67 50.0707 61.996 50.0527 59.44C50.0707 56.92 49.0087 55.246 47.4607 55.228C45.9127 55.246 44.8327 56.92 44.8327 59.44ZM53.9767 68.44V52.816H55.3807V59.044H57.9727V60.232H55.3807V68.44H53.9767ZM73.1334 65.272V66.424H58.8414V65.272H65.2494V61.456H60.5334V54.112H71.3694V61.456H66.6174V65.272H73.1334ZM61.8654 60.34H70.0014V55.228H61.8654V60.34ZM78.574 54.004C80.878 54.022 82.498 56.128 82.498 59.44C82.498 62.788 80.878 64.894 78.574 64.912C76.252 64.894 74.614 62.788 74.65 59.44C74.614 56.128 76.252 54.022 78.574 54.004ZM75.946 59.44C75.946 61.996 77.026 63.67 78.574 63.652C80.122 63.67 81.184 61.996 81.166 59.44C81.184 56.92 80.122 55.246 78.574 55.228C77.026 55.246 75.946 56.92 75.946 59.44ZM85.09 68.44V52.816H86.494V59.044H89.086V60.232H86.494V68.44H85.09ZM107.307 53.536V54.652H104.931V58.252H107.271V59.368H102.231V61.276H108.675V62.392H94.4546V61.276H100.863V59.368H95.8226V58.252H98.1986V54.652H95.7866V53.536H107.307ZM96.2906 68.08V63.76H97.6586V66.928H107.091V68.08H96.2906ZM99.5666 58.252H103.527V54.652H99.5666V58.252ZM122.647 61.24V62.392H111.847V54.148H122.467V55.3H113.251V57.64H122.143V58.756H113.251V61.24H122.647ZM110.011 66.388V65.236H124.303V66.388H110.011Z" fill="white"/>
</svg>
