<svg width="154" height="119" viewBox="0 0 154 119" fill="none" xmlns="http://www.w3.org/2000/svg">
<rect width="154" height="119" rx="14" fill="#1F1F1F"/>
<path d="M42.9662 58.906C42.8942 59.302 42.8222 59.482 42.4622 59.554C41.4722 59.788 40.3562 60.004 39.2222 60.166C39.2402 60.238 39.2402 60.31 39.2402 60.4C39.2042 61.084 39.2042 61.768 39.2402 62.848C41.0942 62.686 42.7862 62.578 44.4422 62.47C44.8382 62.452 45.0542 62.632 45.0542 62.902C45.0722 63.262 44.8922 63.442 44.4782 63.46C40.5722 63.712 36.5042 64.054 32.5982 64.54C32.2562 64.576 32.0222 64.396 32.0222 64.072C32.0222 63.73 32.1482 63.604 32.5622 63.55C34.3262 63.334 36.1622 63.136 38.1422 62.938C38.1062 61.804 38.1062 61.048 38.1422 60.472C38.1422 60.418 38.1602 60.364 38.1602 60.31C37.2962 60.418 36.4322 60.49 35.6402 60.526C34.5782 60.598 33.8942 60.04 33.7862 59.086C33.6242 57.538 33.5522 55.648 33.6602 53.56C33.6962 53.218 33.9482 53.038 34.2722 53.074C34.5422 53.128 34.6502 53.254 34.6502 53.776C36.7742 53.398 39.6182 53.11 41.7242 52.966C42.5342 52.912 43.0022 53.434 43.1102 54.388C43.2542 55.684 43.2182 57.088 42.9662 58.906ZM34.6502 54.712C34.6142 56.134 34.7042 57.538 34.8122 58.636C34.8842 59.302 35.2802 59.572 35.9642 59.536C37.6742 59.464 40.2482 59.122 41.9402 58.744C42.1202 57.142 42.1562 55.828 42.0842 54.802C42.0482 54.262 41.6702 53.938 41.0942 53.956C39.5462 54.064 36.8642 54.352 34.6502 54.712ZM47.9842 58.474C48.2182 60.76 49.2982 62.11 50.9542 61.858C52.6462 61.588 53.3482 59.14 53.1502 57.268C52.8982 54.73 51.8722 53.74 50.2882 53.992C48.5962 54.316 47.7862 56.656 47.9842 58.474ZM46.8502 58.798C46.5622 55.882 47.8762 53.326 50.1442 52.948C52.3222 52.624 54.0322 54.064 54.3022 56.944C54.5722 59.806 53.4562 62.524 51.1702 62.884C48.8302 63.244 47.1202 61.552 46.8502 58.798ZM59.8462 58.312C59.3602 58.42 58.4782 58.564 57.5602 58.654C57.5602 61.012 57.4882 63.208 57.3442 65.17C57.3082 65.674 57.1282 65.818 56.7682 65.782C56.4802 65.782 56.2282 65.602 56.2642 65.206C56.4982 61.48 56.4622 56.368 56.1922 52.552C56.1562 52.084 56.4262 51.904 56.7142 51.868C57.0202 51.868 57.2542 52.012 57.3082 52.516C57.4522 54.01 57.5242 55.684 57.5602 57.574C58.4242 57.43 59.2342 57.322 59.8102 57.268C60.2062 57.178 60.3322 57.304 60.3502 57.664C60.3862 57.988 60.2242 58.276 59.8462 58.312ZM72.6732 58.906C72.6012 59.302 72.5292 59.482 72.1692 59.554C71.1792 59.788 70.0632 60.004 68.9292 60.166C68.9472 60.238 68.9472 60.31 68.9472 60.4C68.9112 61.084 68.9112 61.768 68.9472 62.848C70.8012 62.686 72.4932 62.578 74.1492 62.47C74.5452 62.452 74.7612 62.632 74.7612 62.902C74.7792 63.262 74.5992 63.442 74.1852 63.46C70.2792 63.712 66.2112 64.054 62.3052 64.54C61.9632 64.576 61.7292 64.396 61.7292 64.072C61.7292 63.73 61.8552 63.604 62.2692 63.55C64.0332 63.334 65.8692 63.136 67.8492 62.938C67.8132 61.804 67.8132 61.048 67.8492 60.472C67.8492 60.418 67.8672 60.364 67.8672 60.31C67.0032 60.418 66.1392 60.49 65.3472 60.526C64.2852 60.598 63.6012 60.04 63.4932 59.086C63.3312 57.538 63.2592 55.648 63.3672 53.56C63.4032 53.218 63.6552 53.038 63.9792 53.074C64.2492 53.128 64.3572 53.254 64.3572 53.776C66.4812 53.398 69.3252 53.11 71.4312 52.966C72.2412 52.912 72.7092 53.434 72.8172 54.388C72.9612 55.684 72.9252 57.088 72.6732 58.906ZM64.3572 54.712C64.3212 56.134 64.4112 57.538 64.5192 58.636C64.5912 59.302 64.9872 59.572 65.6712 59.536C67.3812 59.464 69.9552 59.122 71.6472 58.744C71.8272 57.142 71.8632 55.828 71.7912 54.802C71.7552 54.262 71.3772 53.938 70.8012 53.956C69.2532 54.064 66.5712 54.352 64.3572 54.712ZM77.6913 58.474C77.9253 60.76 79.0053 62.11 80.6613 61.858C82.3533 61.588 83.0553 59.14 82.8573 57.268C82.6053 54.73 81.5793 53.74 79.9953 53.992C78.3033 54.316 77.4933 56.656 77.6913 58.474ZM76.5573 58.798C76.2693 55.882 77.5833 53.326 79.8513 52.948C82.0293 52.624 83.7393 54.064 84.0093 56.944C84.2793 59.806 83.1633 62.524 80.8773 62.884C78.5373 63.244 76.8273 61.552 76.5573 58.798ZM89.5533 58.312C89.0673 58.42 88.1853 58.564 87.2673 58.654C87.2673 61.012 87.1953 63.208 87.0513 65.17C87.0153 65.674 86.8353 65.818 86.4753 65.782C86.1873 65.782 85.9353 65.602 85.9713 65.206C86.2053 61.48 86.1693 56.368 85.8993 52.552C85.8633 52.084 86.1333 51.904 86.4213 51.868C86.7273 51.868 86.9613 52.012 87.0153 52.516C87.1593 54.01 87.2313 55.684 87.2673 57.574C88.1313 57.43 88.9413 57.322 89.5173 57.268C89.9133 57.178 90.0393 57.304 90.0573 57.664C90.0933 57.988 89.9313 58.276 89.5533 58.312ZM106.588 56.728C105.148 56.836 103.708 56.962 102.268 57.124C102.268 57.61 102.25 58.258 102.25 59.014C104.248 58.852 106.03 58.708 107.776 58.6C108.19 58.582 108.406 58.762 108.406 59.032C108.424 59.392 108.244 59.554 107.83 59.59C103.924 59.842 99.8197 60.22 95.9137 60.706C95.5717 60.742 95.3557 60.544 95.3557 60.238C95.3557 59.878 95.4637 59.77 95.8777 59.716C97.5697 59.5 99.2977 59.302 101.188 59.104C101.188 58.366 101.17 57.736 101.152 57.232C99.8737 57.376 98.5777 57.556 97.2817 57.736C96.8497 57.808 96.5797 57.736 96.5257 57.394C96.4717 57.088 96.6697 56.854 97.0477 56.818C97.6057 56.746 98.2177 56.656 98.8297 56.584C98.7397 55.522 98.6677 54.568 98.6677 53.542L97.1017 53.794C96.6697 53.866 96.4357 53.794 96.3817 53.452C96.3277 53.146 96.5797 52.93 96.9577 52.876C100.054 52.426 103.024 52.084 106.012 51.832C106.39 51.796 106.57 51.904 106.606 52.174C106.642 52.48 106.48 52.678 106.066 52.714C105.616 52.75 105.13 52.822 104.482 52.876C104.59 53.974 104.626 54.892 104.59 55.972C105.382 55.918 105.94 55.882 106.516 55.846C106.912 55.81 107.092 55.918 107.11 56.188C107.146 56.512 106.984 56.692 106.588 56.728ZM99.8377 56.422C101.17 56.296 102.268 56.152 103.546 56.062C103.546 55.054 103.51 54.028 103.42 52.984C102.124 53.128 100.9 53.29 99.6937 53.434C99.6937 54.442 99.7657 55.414 99.8377 56.422ZM106.714 64.522C106.804 64.846 106.606 65.152 106.282 65.224C104.428 65.71 101.746 66.124 99.4417 66.268C98.5417 66.304 98.0377 65.926 97.9297 65.17C97.7857 64.198 97.8037 62.956 97.9117 61.966C97.9477 61.624 98.2177 61.372 98.4877 61.408C98.7937 61.462 98.9557 61.66 98.9197 62.038C98.8657 62.758 98.8837 64.108 98.9557 64.756C98.9917 65.116 99.1897 65.26 99.5497 65.242C101.26 65.152 104.122 64.702 105.994 64.252C106.336 64.162 106.642 64.252 106.714 64.522ZM119.454 56.836C117.276 57.07 114.756 57.358 112.506 57.718C112.506 58.168 112.506 58.618 112.542 58.942C112.632 59.608 113.118 59.878 113.802 59.86C115.476 59.788 118.428 59.338 120.012 58.924C120.264 58.834 120.39 58.906 120.48 59.122C120.588 59.428 120.444 59.734 120.246 59.77C118.392 60.292 115.62 60.706 113.406 60.814C112.326 60.868 111.678 60.436 111.588 59.5C111.462 58.096 111.462 56.296 111.606 54.82H111.318C110.922 54.892 110.706 54.802 110.652 54.514C110.598 54.154 110.76 53.956 111.066 53.902C113.424 53.488 116.988 53.074 119.418 52.948C119.778 52.912 119.94 53.002 119.976 53.272C120.012 53.614 119.868 53.794 119.454 53.83C117.654 53.992 114.918 54.28 112.614 54.604V54.784C112.578 55.252 112.542 55.882 112.488 56.746C114.882 56.368 117.204 56.116 119.418 55.954C119.778 55.918 119.94 56.008 119.976 56.278C120.012 56.638 119.868 56.8 119.454 56.836ZM122.244 63.334C118.338 63.568 114.27 63.91 110.364 64.396C110.022 64.432 109.788 64.252 109.788 63.928C109.788 63.586 109.914 63.46 110.328 63.406C114.198 62.92 118.266 62.542 122.208 62.344C122.604 62.308 122.82 62.488 122.82 62.758C122.838 63.118 122.658 63.298 122.244 63.334Z" fill="white"/>
</svg>
