<svg width="154" height="119" viewBox="0 0 154 119" fill="none" xmlns="http://www.w3.org/2000/svg">
<rect width="154" height="119" rx="14" fill="#1F1F1F"/>
<path d="M37.1287 50.372C37.1287 50.57 36.7147 50.786 36.6967 51.002C36.4267 53.18 36.2287 54.692 36.0847 55.574C36.5527 55.736 36.7867 55.934 36.7867 56.186C36.7867 56.456 36.5167 56.582 35.9767 56.582C33.5467 56.564 31.1347 56.618 28.7767 56.672C28.6327 57.338 28.3987 57.68 28.0387 57.68C27.7687 57.68 27.6067 57.32 27.5527 56.618L27.1207 51.074C26.8687 50.858 26.4727 50.66 25.8607 50.498C25.6447 50.444 25.5367 50.354 25.5367 50.246C25.5367 50.084 25.8607 49.922 26.1127 49.922C26.7247 49.922 27.3007 49.958 27.8407 50.03C28.1467 50.066 28.4167 50.12 28.6507 50.228C31.1527 50.246 33.2047 50.192 34.8427 50.084C34.9687 50.084 35.0947 50.066 35.2387 50.012C35.4187 49.94 35.5627 49.904 35.6707 49.904C35.9947 49.904 36.3907 49.958 36.8227 50.066C37.0387 50.12 37.1287 50.228 37.1287 50.372ZM35.1127 50.912C32.8987 50.894 30.7567 50.93 28.7047 51.02C28.6867 51.128 28.6867 51.272 28.6867 51.434L28.7947 55.826C31.2247 55.862 33.1867 55.826 34.6987 55.736C34.8247 55.736 34.9147 55.646 34.9867 55.502L35.1127 50.912ZM40.0807 61.316C40.0807 61.73 39.7927 61.928 39.2527 61.892C38.4967 61.82 37.7767 61.784 37.0567 61.784C33.8167 61.784 30.6667 61.874 28.3627 62.036C28.0027 62.054 27.7327 62.09 27.5167 62.126C26.8687 62.234 26.4727 62.504 26.2567 62.504C26.1667 62.504 26.0767 62.486 25.9507 62.45C25.3207 62.252 24.6907 61.928 24.0607 61.514C23.8807 61.406 23.7907 61.28 23.7907 61.154C23.7907 61.01 23.9167 60.956 24.2047 61.01C24.9607 61.136 25.8427 61.19 26.8507 61.19C28.1287 61.19 29.6767 61.172 31.3507 61.136V58.886C31.1167 58.562 30.7027 58.328 30.1267 58.13C29.9467 58.076 29.8567 57.986 29.8567 57.86C29.8567 57.662 30.0367 57.572 30.4147 57.572C31.0807 57.572 31.7647 57.662 32.4487 57.86C32.8087 57.95 32.9707 58.166 32.9167 58.472C32.8987 58.634 32.8627 58.85 32.8267 59.12L32.7187 61.1C33.5647 61.064 34.4287 61.028 35.2927 60.992C36.2287 60.956 36.8227 60.866 37.0927 60.74C37.3807 60.596 37.5967 60.524 37.7947 60.524C38.4607 60.524 39.0367 60.596 39.5227 60.722C39.8827 60.83 40.0807 61.028 40.0807 61.316ZM41.4024 55.376C41.4024 53.414 42.9864 51.812 45.2364 51.65C45.3444 51.542 45.4344 51.434 45.4344 51.326C45.4344 51.182 45.3624 51.074 45.1464 50.948C45.0204 50.876 44.9484 50.822 44.9484 50.714C44.9484 50.588 45.0384 50.48 45.3624 50.48C45.6684 50.48 46.1724 50.588 46.4784 50.768C46.6404 50.858 46.7304 50.984 46.7304 51.092C46.7304 51.254 46.6044 51.47 46.4244 51.704C48.4404 52.01 49.8084 53.522 49.8084 55.376C49.8084 57.464 48.0444 59.12 45.6324 59.12C43.1844 59.12 41.4024 57.464 41.4024 55.376ZM53.7324 48.932C53.7324 49.148 53.6424 49.724 53.6424 50.012V55.538C54.0924 55.538 54.3444 55.484 54.5424 55.322C54.7044 55.178 54.8844 55.088 55.0464 55.034C55.5504 54.89 56.0724 54.89 56.6484 55.07C56.9184 55.142 57.0624 55.322 57.0624 55.592C57.0624 56.006 56.8104 56.204 56.3064 56.204C55.3524 56.222 54.4704 56.258 53.6424 56.276V59.804C53.6424 61.226 53.5884 62.342 53.4804 63.17C53.3004 64.466 53.0304 65.096 52.6524 65.096C52.3464 65.096 52.2024 64.43 52.2024 63.062V49.544C51.8964 49.112 51.3744 48.77 50.5824 48.518C50.4024 48.464 50.2764 48.374 50.2764 48.248C50.2764 48.068 50.5284 47.978 51.0324 47.978C51.6984 47.978 52.4364 48.122 53.2824 48.41C53.5884 48.5 53.7324 48.68 53.7324 48.932ZM42.9144 55.322C42.9144 56.798 44.0844 57.878 45.6324 57.878C47.1804 57.878 48.3684 56.798 48.3684 55.322C48.3684 53.846 47.1804 52.784 45.6324 52.784C44.0844 52.784 42.9144 53.846 42.9144 55.322ZM70.9841 50.372C70.9841 50.57 70.5701 50.786 70.5521 51.002C70.2821 53.18 70.0841 54.692 69.9401 55.574C70.4081 55.736 70.6421 55.934 70.6421 56.186C70.6421 56.456 70.3721 56.582 69.8321 56.582C67.4021 56.564 64.9901 56.618 62.6321 56.672C62.4881 57.338 62.2541 57.68 61.8941 57.68C61.6241 57.68 61.4621 57.32 61.4081 56.618L60.9761 51.074C60.7241 50.858 60.3281 50.66 59.7161 50.498C59.5001 50.444 59.3921 50.354 59.3921 50.246C59.3921 50.084 59.7161 49.922 59.9681 49.922C60.5801 49.922 61.1561 49.958 61.6961 50.03C62.0021 50.066 62.2721 50.12 62.5061 50.228C65.0081 50.246 67.0601 50.192 68.6981 50.084C68.8241 50.084 68.9501 50.066 69.0941 50.012C69.2741 49.94 69.4181 49.904 69.5261 49.904C69.8501 49.904 70.2461 49.958 70.6781 50.066C70.8941 50.12 70.9841 50.228 70.9841 50.372ZM68.9681 50.912C66.7541 50.894 64.6121 50.93 62.5601 51.02C62.5421 51.128 62.5421 51.272 62.5421 51.434L62.6501 55.826C65.0801 55.862 67.0421 55.826 68.5541 55.736C68.6801 55.736 68.7701 55.646 68.8421 55.502L68.9681 50.912ZM73.9361 61.316C73.9361 61.73 73.6481 61.928 73.1081 61.892C72.3521 61.82 71.6321 61.784 70.9121 61.784C67.6721 61.784 64.5221 61.874 62.2181 62.036C61.8581 62.054 61.5881 62.09 61.3721 62.126C60.7241 62.234 60.3281 62.504 60.1121 62.504C60.0221 62.504 59.9321 62.486 59.8061 62.45C59.1761 62.252 58.5461 61.928 57.9161 61.514C57.7361 61.406 57.6461 61.28 57.6461 61.154C57.6461 61.01 57.7721 60.956 58.0601 61.01C58.8161 61.136 59.6981 61.19 60.7061 61.19C61.9841 61.19 63.5321 61.172 65.2061 61.136V58.886C64.9721 58.562 64.5581 58.328 63.9821 58.13C63.8021 58.076 63.7121 57.986 63.7121 57.86C63.7121 57.662 63.8921 57.572 64.2701 57.572C64.9361 57.572 65.6201 57.662 66.3041 57.86C66.6641 57.95 66.8261 58.166 66.7721 58.472C66.7541 58.634 66.7181 58.85 66.6821 59.12L66.5741 61.1C67.4201 61.064 68.2841 61.028 69.1481 60.992C70.0841 60.956 70.6781 60.866 70.9481 60.74C71.2361 60.596 71.4521 60.524 71.6501 60.524C72.3161 60.524 72.8921 60.596 73.3781 60.722C73.7381 60.83 73.9361 61.028 73.9361 61.316ZM75.2579 55.376C75.2579 53.414 76.8419 51.812 79.0919 51.65C79.1999 51.542 79.2899 51.434 79.2899 51.326C79.2899 51.182 79.2179 51.074 79.0019 50.948C78.8759 50.876 78.8039 50.822 78.8039 50.714C78.8039 50.588 78.8939 50.48 79.2179 50.48C79.5239 50.48 80.0279 50.588 80.3339 50.768C80.4959 50.858 80.5859 50.984 80.5859 51.092C80.5859 51.254 80.4599 51.47 80.2799 51.704C82.2959 52.01 83.6639 53.522 83.6639 55.376C83.6639 57.464 81.8999 59.12 79.4879 59.12C77.0399 59.12 75.2579 57.464 75.2579 55.376ZM87.5879 48.932C87.5879 49.148 87.4979 49.724 87.4979 50.012V55.538C87.9479 55.538 88.1999 55.484 88.3979 55.322C88.5599 55.178 88.7399 55.088 88.9019 55.034C89.4059 54.89 89.9279 54.89 90.5039 55.07C90.7739 55.142 90.9179 55.322 90.9179 55.592C90.9179 56.006 90.6659 56.204 90.1619 56.204C89.2079 56.222 88.3259 56.258 87.4979 56.276V59.804C87.4979 61.226 87.4439 62.342 87.3359 63.17C87.1559 64.466 86.8859 65.096 86.5079 65.096C86.2019 65.096 86.0579 64.43 86.0579 63.062V49.544C85.7519 49.112 85.2299 48.77 84.4379 48.518C84.2579 48.464 84.1319 48.374 84.1319 48.248C84.1319 48.068 84.3839 47.978 84.8879 47.978C85.5539 47.978 86.2919 48.122 87.1379 48.41C87.4439 48.5 87.5879 48.68 87.5879 48.932ZM76.7699 55.322C76.7699 56.798 77.9399 57.878 79.4879 57.878C81.0359 57.878 82.2239 56.798 82.2239 55.322C82.2239 53.846 81.0359 52.784 79.4879 52.784C77.9399 52.784 76.7699 53.846 76.7699 55.322ZM113.346 57.716C113.346 58.166 113.058 58.364 112.518 58.31C111.762 58.256 111.042 58.22 110.322 58.22C107.082 58.22 103.95 58.292 101.646 58.454C101.286 58.472 101.016 58.508 100.8 58.544C100.152 58.634 99.7559 58.922 99.5399 58.922C99.4499 58.922 99.3599 58.904 99.2339 58.868C98.6039 58.688 97.9739 58.364 97.3439 57.95C97.1639 57.824 97.0739 57.698 97.0739 57.572C97.0739 57.428 97.1999 57.374 97.4879 57.428C98.2439 57.554 99.1259 57.626 100.134 57.626C101.394 57.626 102.906 57.608 104.544 57.572V55.466C103.914 55.502 103.284 55.538 102.69 55.574C102.24 55.61 101.898 55.682 101.646 55.808C101.52 55.88 101.394 55.934 101.304 55.934C101.178 55.934 101.052 55.898 100.926 55.844C100.422 55.646 99.9539 55.394 99.5039 55.088C99.3599 54.98 99.2879 54.872 99.2879 54.782C99.2879 54.638 99.4139 54.584 99.6659 54.62C100.332 54.71 101.016 54.764 101.718 54.764C103.284 54.764 105.138 54.728 106.776 54.656C107.028 53.612 107.19 52.622 107.28 51.92C107.19 51.668 106.884 51.416 106.326 51.164C106.146 51.056 106.056 50.966 106.074 50.858C106.092 50.714 106.29 50.642 106.704 50.66C107.172 50.678 107.82 50.822 108.594 51.092C108.846 51.2 108.972 51.308 108.972 51.47C108.972 51.542 108.918 51.704 108.792 51.938C108.738 52.028 108.666 52.19 108.612 52.352C108.432 52.82 108.144 53.666 107.694 54.602C107.982 54.566 108.216 54.494 108.414 54.386C108.648 54.26 108.9 54.206 109.188 54.206C109.638 54.206 109.998 54.242 110.304 54.332C110.718 54.44 110.916 54.62 110.916 54.872C110.916 55.232 110.718 55.394 110.304 55.394C110.232 55.394 109.908 55.394 109.332 55.376C108.774 55.358 108.378 55.358 108.144 55.358C107.496 55.358 106.74 55.376 105.966 55.394L105.948 57.518C106.794 57.5 107.676 57.464 108.558 57.41C109.494 57.374 110.088 57.284 110.358 57.158C110.646 57.014 110.862 56.942 111.06 56.942C111.726 56.942 112.302 57.014 112.788 57.14C113.148 57.248 113.346 57.446 113.346 57.716ZM110.808 63.494C110.808 63.908 110.556 64.106 110.016 64.106C109.224 64.106 107.91 64.106 106.056 64.124C104.202 64.142 103.086 64.142 102.672 64.142C102.06 64.142 101.61 63.98 101.358 63.674C101.178 63.458 101.07 63.08 101.052 62.558L101.034 61.046C100.908 60.812 100.404 60.56 99.5039 60.362C99.3059 60.308 99.1979 60.236 99.1979 60.11C99.1979 59.948 99.6479 59.732 99.9179 59.732C100.962 59.732 101.718 59.804 102.186 59.894C102.474 59.948 102.6 60.128 102.564 60.416C102.546 60.596 102.528 60.866 102.528 61.19V62.81C102.528 63.152 102.69 63.332 103.032 63.35C104.184 63.422 105.264 63.386 106.308 63.332C107.136 63.278 107.712 63.17 108.054 63.008C108.342 62.864 108.576 62.792 108.72 62.792C110.088 62.792 110.808 62.81 110.808 63.494ZM111.06 49.778C111.06 50.156 110.862 50.354 110.43 50.318C110.016 50.264 109.314 50.246 108.324 50.246C106.938 50.246 104.832 50.336 102.708 50.48C102.294 50.498 101.952 50.588 101.664 50.714C101.502 50.786 101.394 50.822 101.304 50.822C101.232 50.822 101.124 50.786 100.962 50.732C100.332 50.498 99.8099 50.228 99.3959 49.958C99.2699 49.868 99.1979 49.778 99.1979 49.688C99.1979 49.526 99.3059 49.472 99.5219 49.508C100.224 49.598 100.98 49.652 101.754 49.652C103.5 49.652 105.498 49.616 106.992 49.526C107.622 49.49 108.09 49.4 108.36 49.256C108.648 49.112 108.918 49.04 109.152 49.04C109.62 49.04 110.052 49.094 110.484 49.184C110.862 49.274 111.06 49.472 111.06 49.778ZM103.968 53.216C103.968 53.45 103.842 53.738 103.482 54.098C103.32 54.26 103.14 54.35 102.978 54.35C102.726 54.35 102.6 54.224 102.582 53.972C102.528 53.63 102.456 53.018 102.33 52.46C102.24 52.172 102.132 51.848 102.006 51.524C101.898 51.326 101.862 51.2 101.862 51.146C101.862 50.984 101.97 50.912 102.168 50.912C102.276 50.912 102.42 50.984 102.582 51.128C102.906 51.38 103.194 51.65 103.428 51.938C103.824 52.406 103.968 52.946 103.968 53.216ZM127.844 57.41C127.844 57.824 127.592 58.022 127.052 58.022C124.208 58.022 121.4 58.058 119.222 58.148C117.746 58.202 117.278 57.716 117.278 56.528V51.416C117.17 51.2 116.648 50.966 115.748 50.75C115.532 50.696 115.424 50.606 115.424 50.48C115.424 50.336 115.838 50.102 116.162 50.102C116.792 50.102 117.476 50.174 118.16 50.264C118.34 50.282 118.538 50.336 118.754 50.444C120.464 50.462 122.354 50.408 123.65 50.318C124.154 50.264 124.532 50.174 124.838 50.012C125.054 49.886 125.234 49.832 125.378 49.814C125.9 49.76 126.458 49.76 127.07 49.85C127.466 49.904 127.682 50.102 127.682 50.444C127.682 50.822 127.376 51.002 126.818 51.02C125.27 51.038 122.336 51.11 118.808 51.236C118.79 51.452 118.772 51.614 118.772 51.74V53.918C120.698 53.9 122.534 53.864 123.47 53.81C123.938 53.774 124.334 53.684 124.622 53.522C124.856 53.396 125.054 53.342 125.198 53.324C125.666 53.27 126.188 53.288 126.71 53.36C127.124 53.414 127.322 53.612 127.322 53.936C127.322 54.332 127.034 54.53 126.458 54.53C124.46 54.566 121.598 54.638 118.772 54.71V56.816C118.772 57.158 118.952 57.32 119.276 57.32C120.32 57.338 121.832 57.338 123.272 57.284C124.1 57.248 124.676 57.158 124.982 56.996C125.252 56.852 125.468 56.78 125.648 56.744C126.206 56.726 126.746 56.78 127.232 56.834C127.646 56.888 127.844 57.086 127.844 57.41ZM130.274 61.28C130.274 61.694 129.986 61.892 129.446 61.838C128.69 61.784 127.97 61.748 127.25 61.748C124.01 61.748 120.878 61.838 118.574 62C118.214 62.018 117.944 62.054 117.728 62.072C117.08 62.216 116.684 62.468 116.468 62.468C116.378 62.468 116.288 62.45 116.162 62.414C115.532 62.216 114.902 61.892 114.272 61.478C114.092 61.37 114.002 61.244 114.002 61.1C114.002 60.956 114.128 60.902 114.416 60.956C115.172 61.082 116.054 61.154 117.062 61.154C119.33 61.154 122.39 61.082 125.486 60.956C126.422 60.902 127.016 60.812 127.286 60.686C127.574 60.542 127.79 60.47 127.988 60.47C128.654 60.47 129.23 60.542 129.716 60.686C130.076 60.776 130.274 60.974 130.274 61.28Z" fill="white"/>
</svg>
