<svg width="24" height="25" viewBox="0 0 24 25" fill="none" xmlns="http://www.w3.org/2000/svg">
<g clip-path="url(#clip0_1134_5587)">
<path d="M20 3.5C20.5046 3.49984 20.9906 3.69041 21.3605 4.0335C21.7305 4.37659 21.9572 4.84684 21.995 5.35L22 5.5V19.5C22.0002 20.0046 21.8096 20.4906 21.4665 20.8605C21.1234 21.2305 20.6532 21.4572 20.15 21.495L20 21.5H4C3.49542 21.5002 3.00943 21.3096 2.63945 20.9665C2.26947 20.6234 2.04284 20.1532 2.005 19.65L2 19.5V5.5C1.99984 4.99542 2.19041 4.50943 2.5335 4.13945C2.87659 3.76947 3.34684 3.54284 3.85 3.505L4 3.5H20ZM9.879 12.55L4.222 18.207C4.15618 18.2731 4.08146 18.3296 4 18.375V19.5H20V18.375C19.9185 18.3296 19.8438 18.2731 19.778 18.207L16.95 15.38L16.243 16.087L16.45 16.294C16.5428 16.3869 16.6165 16.4972 16.6667 16.6186C16.7169 16.7399 16.7427 16.87 16.7427 17.0014C16.7427 17.1327 16.7167 17.2628 16.6664 17.3841C16.6161 17.5054 16.5424 17.6157 16.4495 17.7085C16.3566 17.8013 16.2463 17.875 16.1249 17.9252C16.0036 17.9754 15.8735 18.0012 15.7421 18.0012C15.6108 18.0012 15.4807 17.9752 15.3594 17.9249C15.2381 17.8746 15.1278 17.8009 15.035 17.708L9.88 12.55H9.879ZM20 5.5H4V15.6L8.995 10.606C9.21274 10.3883 9.50316 10.2586 9.8106 10.2419C10.118 10.2251 10.4208 10.3223 10.661 10.515L10.762 10.605L14.828 14.672L16.066 13.434C16.2837 13.2163 16.5742 13.0866 16.8816 13.0699C17.189 13.0531 17.4918 13.1503 17.732 13.343L17.834 13.434L20 15.601V5.5ZM15.5 7.5C15.8978 7.5 16.2794 7.65804 16.5607 7.93934C16.842 8.22064 17 8.60218 17 9C17 9.39782 16.842 9.77936 16.5607 10.0607C16.2794 10.342 15.8978 10.5 15.5 10.5C15.1022 10.5 14.7206 10.342 14.4393 10.0607C14.158 9.77936 14 9.39782 14 9C14 8.60218 14.158 8.22064 14.4393 7.93934C14.7206 7.65804 15.1022 7.5 15.5 7.5Z" fill="#B6B6B6"/>
</g>
<defs>
<clipPath id="clip0_1134_5587">
<rect width="24" height="24" fill="white" transform="translate(0 0.5)"/>
</clipPath>
</defs>
</svg>
