<svg width="35" height="34" viewBox="0 0 35 34" fill="none" xmlns="http://www.w3.org/2000/svg">
<g clip-path="url(#clip0_1038_34815)">
<path fill-rule="evenodd" clip-rule="evenodd" d="M12.7782 2.83301C14.6766 2.83301 16.3737 3.69434 17.5 5.04868C18.0755 4.35464 18.7971 3.79619 19.6133 3.41319C20.4295 3.0302 21.3202 2.83209 22.2218 2.83301H22.3167C23.2935 2.83301 24.2304 3.22108 24.9212 3.91183C25.6119 4.60259 26 5.53946 26 6.51634C26 7.22468 25.847 7.89476 25.575 8.49968H26C27.1272 8.49968 28.2082 8.94744 29.0052 9.74447C29.8022 10.5415 30.25 11.6225 30.25 12.7497V25.4997C30.25 26.6268 29.8022 27.7079 29.0052 28.5049C28.2082 29.3019 27.1272 29.7497 26 29.7497H9C7.87283 29.7497 6.79183 29.3019 5.9948 28.5049C5.19777 27.7079 4.75 26.6268 4.75 25.4997V12.7497C4.75 11.6225 5.19777 10.5415 5.9948 9.74447C6.79183 8.94744 7.87283 8.49968 9 8.49968H9.425C9.153 7.89476 9 7.22468 9 6.51634C9 5.53946 9.38806 4.60259 10.0788 3.91183C10.7696 3.22108 11.7065 2.83301 12.6833 2.83301H12.7782ZM27.4167 19.833H18.9167V26.9163H26C26.347 26.9163 26.6819 26.7889 26.9412 26.5583C27.2005 26.3278 27.3662 26.01 27.4067 25.6654L27.4167 25.4997V19.833ZM16.0833 19.833H7.58333V25.4997C7.58333 25.8754 7.73259 26.2357 7.99827 26.5014C8.26394 26.7671 8.62428 26.9163 9 26.9163H16.0833V19.833ZM16.0833 11.333H9C8.65301 11.3331 8.31811 11.4604 8.05881 11.691C7.79951 11.9216 7.63385 12.2393 7.59325 12.5839L7.58333 12.7497V16.9997H16.0833V11.333ZM26 11.333H18.9167V16.9997H27.4167V12.7497C27.4167 12.374 27.2674 12.0136 27.0017 11.7479C26.7361 11.4823 26.3757 11.333 26 11.333ZM12.7782 5.66634H12.6833C12.4579 5.66634 12.2417 5.7559 12.0823 5.9153C11.9229 6.07471 11.8333 6.29091 11.8333 6.51634C11.8333 7.04236 12.0423 7.54683 12.4142 7.91877C12.7862 8.29072 13.2907 8.49968 13.8167 8.49968H16.0493C15.9356 7.7129 15.5422 6.99344 14.9412 6.47309C14.3402 5.95274 13.5732 5.66634 12.7782 5.66634ZM22.3167 5.66634H22.2218C20.6351 5.66634 19.3105 6.78268 18.9917 8.27301L18.9492 8.49968H21.1833C21.7093 8.49968 22.2138 8.29072 22.5858 7.91877C22.9577 7.54683 23.1667 7.04236 23.1667 6.51634C23.1666 6.31476 23.0949 6.11975 22.9644 5.96612C22.8339 5.8125 22.653 5.71027 22.4541 5.67768L22.3167 5.66634Z" fill="black"/>
</g>
<defs>
<clipPath id="clip0_1038_34815">
<rect width="34" height="34" fill="white" transform="translate(0.5)"/>
</clipPath>
</defs>
</svg>
