<svg width="29" height="25" viewBox="0 0 29 25" fill="none" xmlns="http://www.w3.org/2000/svg">
<path d="M20.7119 1C24.7809 1.00001 27.8837 4.84857 27.9951 8.73145C27.9985 8.76503 28 8.79951 28 8.83398V8.9502C28 9.23429 27.9828 9.51487 27.9521 9.79102L27.9531 9.79199C27.5387 14.2117 24.2405 21.5794 14.7441 23.9697C14.5839 24.0101 14.4161 24.0101 14.2559 23.9697C4.7595 21.5794 1.46127 14.2117 1.04688 9.79199L1.04785 9.79102C1.01722 9.51487 1 9.23429 1 8.9502V8.83398C1 8.79951 1.00148 8.76503 1.00488 8.73145C1.11634 4.84857 4.21911 1.00002 8.28809 1C9.8775 1 11.2878 1.36641 12.5068 2.21094C13.2632 2.73495 13.9131 3.42052 14.4785 4.25781C14.9896 3.4719 15.5907 2.80473 16.3145 2.28125C17.5231 1.40712 18.9792 1 20.7119 1Z" fill="#FD4755" stroke="black" stroke-width="2" stroke-linejoin="round"/>
<mask id="mask0_1920_6765" style="mask-type:alpha" maskUnits="userSpaceOnUse" x="2" y="2" width="25" height="21">
<path d="M20.7119 2C24.1465 2 26.9378 5.34093 26.9988 8.8336H27C27 8.85394 26.9999 8.87439 26.9997 8.89495C26.9999 8.9134 27 8.93187 27 8.95036C27 9.20363 26.9856 9.45347 26.9576 9.69909C26.5742 13.789 23.5025 20.734 14.5 23C5.49746 20.734 2.42583 13.789 2.04235 9.69909C2.01442 9.45347 2 9.20363 2 8.95036C2 8.93187 2.00014 8.9134 2.0003 8.89495C2.00014 8.87439 2 8.85394 2 8.8336H2.00119C2.06217 5.34093 4.85347 2 8.28811 2C11.1463 2 13.0899 3.30715 14.5 6.34281C15.7576 3.46283 17.5728 2 20.7119 2Z" fill="#FD4755"/>
</mask>
<g mask="url(#mask0_1920_6765)">
<path d="M8 21.3333C23.5048 20 25.6349 8.55556 24.7619 3L28.9524 4.11111L30 22.4444L11.6667 28L8 21.3333Z" fill="#DC313F"/>
</g>
<path d="M8.5193 5.32193C7.51017 5.35271 5.39354 6.32563 5.00007 9.97113" stroke="white" stroke-width="2" stroke-linecap="round"/>
<circle cx="6" cy="14" r="1" fill="white"/>
</svg>
