<svg width="31" height="30" viewBox="0 0 31 30" fill="none" xmlns="http://www.w3.org/2000/svg">
<g clip-path="url(#clip0_1246_51119)">
<path d="M26.5499 5.76234C25.9115 5.1236 25.1534 4.6169 24.3191 4.2712C23.4848 3.92549 22.5905 3.74756 21.6874 3.74756C20.7843 3.74756 19.89 3.92549 19.0557 4.2712C18.2214 4.6169 17.4634 5.1236 16.8249 5.76234L15.4999 7.08734L14.1749 5.76234C12.8853 4.47273 11.1362 3.74823 9.3124 3.74823C7.48861 3.74823 5.73952 4.47273 4.4499 5.76234C3.16029 7.05196 2.43579 8.80105 2.43579 10.6248C2.43579 12.4486 3.16029 14.1977 4.4499 15.4873L15.4999 26.5373L26.5499 15.4873C27.1886 14.8489 27.6953 14.0909 28.041 13.2565C28.3868 12.4222 28.5647 11.5279 28.5647 10.6248C28.5647 9.72173 28.3868 8.82747 28.041 7.99315C27.6953 7.15882 27.1886 6.40079 26.5499 5.76234Z" stroke="#1F1F1F" stroke-width="3" stroke-linecap="round" stroke-linejoin="round"/>
</g>
<defs>
<clipPath id="clip0_1246_51119">
<rect width="30" height="30" fill="white" transform="translate(0.5)"/>
</clipPath>
</defs>
</svg>
