<svg width="34" height="34" viewBox="0 0 34 34" fill="none" xmlns="http://www.w3.org/2000/svg">
<path d="M25.7 8C26.2803 7.99982 26.8392 8.21421 27.2646 8.60018C27.6901 8.98616 27.9507 9.5152 27.9943 10.0812L28 10.25V23.75C28.0002 24.3176 27.781 24.8644 27.3865 25.2806C26.9919 25.6968 26.4511 25.9518 25.8725 25.9944L25.7 26H7.3C6.71974 26.0002 6.16085 25.7858 5.73537 25.3998C5.30989 25.0138 5.04927 24.4848 5.00575 23.9187L5 23.75V10.25C4.99982 9.68235 5.21897 9.13561 5.61352 8.71938C6.00808 8.30315 6.54887 8.0482 7.1275 8.00563L7.3 8H25.7ZM25.7 10.25H7.3V23.75H25.7V10.25ZM22.25 19.25C22.5431 19.2503 22.825 19.3601 23.0382 19.557C23.2513 19.7538 23.3796 20.0228 23.3967 20.3091C23.4139 20.5953 23.3187 20.8772 23.1306 21.0971C22.9425 21.3169 22.6756 21.4583 22.3846 21.4921L22.25 21.5H10.75C10.4569 21.4997 10.175 21.3899 9.96183 21.193C9.74869 20.9962 9.62043 20.7272 9.60325 20.4409C9.58607 20.1547 9.68128 19.8728 9.8694 19.6529C10.0575 19.4331 10.3244 19.2917 10.6154 19.2579L10.75 19.25H22.25ZM11.9 15.875C12.205 15.875 12.4975 15.9935 12.7132 16.2045C12.9288 16.4155 13.05 16.7016 13.05 17C13.05 17.2984 12.9288 17.5845 12.7132 17.7955C12.4975 18.0065 12.205 18.125 11.9 18.125H10.75C10.445 18.125 10.1525 18.0065 9.93683 17.7955C9.72116 17.5845 9.6 17.2984 9.6 17C9.6 16.7016 9.72116 16.4155 9.93683 16.2045C10.1525 15.9935 10.445 15.875 10.75 15.875H11.9ZM17.075 15.875C17.3681 15.8753 17.65 15.9851 17.8632 16.182C18.0763 16.3788 18.2046 16.6478 18.2217 16.9341C18.2389 17.2203 18.1437 17.5022 17.9556 17.7221C17.7675 17.9419 17.5006 18.0833 17.2095 18.1171L17.075 18.125H15.925C15.6319 18.1247 15.35 18.0149 15.1368 17.818C14.9237 17.6212 14.7954 17.3522 14.7783 17.0659C14.7611 16.7797 14.8563 16.4978 15.0444 16.2779C15.2325 16.0581 15.4994 15.9167 15.7905 15.8829L15.925 15.875H17.075ZM22.25 15.875C22.555 15.875 22.8475 15.9935 23.0632 16.2045C23.2788 16.4155 23.4 16.7016 23.4 17C23.4 17.2984 23.2788 17.5845 23.0632 17.7955C22.8475 18.0065 22.555 18.125 22.25 18.125H21.1C20.795 18.125 20.5025 18.0065 20.2868 17.7955C20.0712 17.5845 19.95 17.2984 19.95 17C19.95 16.7016 20.0712 16.4155 20.2868 16.2045C20.5025 15.9935 20.795 15.875 21.1 15.875H22.25ZM11.9 12.5C12.1931 12.5003 12.475 12.6101 12.6882 12.807C12.9013 13.0038 13.0296 13.2728 13.0467 13.5591C13.0639 13.8453 12.9687 14.1272 12.7806 14.3471C12.5925 14.5669 12.3256 14.7083 12.0345 14.7421L11.9 14.75H10.75C10.4569 14.7497 10.175 14.6399 9.96183 14.443C9.74869 14.2462 9.62043 13.9772 9.60325 13.6909C9.58607 13.4047 9.68128 13.1228 9.8694 12.9029C10.0575 12.6831 10.3244 12.5417 10.6154 12.5079L10.75 12.5H11.9ZM17.075 12.5C17.38 12.5 17.6725 12.6185 17.8882 12.8295C18.1038 13.0405 18.225 13.3266 18.225 13.625C18.225 13.9234 18.1038 14.2095 17.8882 14.4205C17.6725 14.6315 17.38 14.75 17.075 14.75H15.925C15.62 14.75 15.3275 14.6315 15.1118 14.4205C14.8962 14.2095 14.775 13.9234 14.775 13.625C14.775 13.3266 14.8962 13.0405 15.1118 12.8295C15.3275 12.6185 15.62 12.5 15.925 12.5H17.075ZM22.25 12.5C22.5431 12.5003 22.825 12.6101 23.0382 12.807C23.2513 13.0038 23.3796 13.2728 23.3967 13.5591C23.4139 13.8453 23.3187 14.1272 23.1306 14.3471C22.9425 14.5669 22.6756 14.7083 22.3846 14.7421L22.25 14.75H21.1C20.8069 14.7497 20.525 14.6399 20.3118 14.443C20.0987 14.2462 19.9704 13.9772 19.9533 13.6909C19.9361 13.4047 20.0313 13.1228 20.2194 12.9029C20.4075 12.6831 20.6744 12.5417 20.9655 12.5079L21.1 12.5H22.25Z" fill="#1F1F1F"/>
</svg>
