<svg width="157" height="24" viewBox="0 0 157 24" fill="none" xmlns="http://www.w3.org/2000/svg">
<mask id="path-1-outside-1_880_22144" maskUnits="userSpaceOnUse" x="0" y="0" width="157" height="24" fill="black">
<rect fill="white" width="157" height="24"/>
<path d="M24.608 20.76V9.112C24.608 6.776 23.424 5.56 21.216 5.56C19.072 5.56 17.856 7 17.856 9.176V20.824C17.856 22.456 16.8 23.288 15.424 23.288C14.016 23.288 12.992 22.456 12.992 20.824V9.176C12.992 7 11.808 5.56 9.664 5.56C7.456 5.56 6.272 6.776 6.272 9.112V20.76C6.272 22.36 5.088 23.288 3.744 23.288C2.336 23.288 1.152 22.36 1.152 20.76V9.272C1.152 3.352 3.744 0.471998 8.576 0.471998C12.256 0.471998 14.496 2.104 15.424 4.312C16.352 2.104 18.56 0.471998 22.208 0.471998C27.04 0.471998 29.76 3.352 29.76 9.272V20.76C29.76 22.36 28.576 23.288 27.168 23.288C25.824 23.288 24.608 22.36 24.608 20.76ZM42.459 23.64C35.963 23.64 31.675 19.096 31.675 11.864C31.675 4.664 35.963 0.471998 42.459 0.471998C48.987 0.471998 53.275 4.664 53.275 11.864C53.275 19.096 48.987 23.64 42.459 23.64ZM42.459 18.264C46.011 18.264 48.379 15.704 48.379 11.864C48.379 8.056 46.011 5.528 42.459 5.528C38.939 5.528 36.603 8.056 36.603 11.864C36.603 15.704 38.939 18.264 42.459 18.264ZM71.6843 23H65.0923C63.1083 23 61.8923 22.168 61.8923 20.44C61.8923 18.68 63.1723 17.88 65.0923 17.88H68.2923C67.5563 14.712 65.3803 9.112 63.8443 7.32C62.1163 9.72 59.9083 15.16 58.8203 19.704C58.2763 22.008 57.7003 23.256 55.9083 23.256C54.0203 23.256 53.3163 22.072 53.3163 20.696C53.3163 18.872 54.3403 15.512 55.7803 11.992C57.5083 7.768 60.4843 0.792 63.8123 0.792C67.1403 0.792 70.1163 7.736 71.8123 11.992C73.2203 15.48 74.2443 18.712 74.2443 20.6C74.2443 22.04 73.6363 23 71.6843 23ZM107.014 20.76V9.112C107.014 6.776 105.83 5.56 103.622 5.56C101.478 5.56 100.262 7 100.262 9.176V20.824C100.262 22.456 99.2063 23.288 97.8303 23.288C96.4223 23.288 95.3983 22.456 95.3983 20.824V9.176C95.3983 7 94.2143 5.56 92.0703 5.56C89.8623 5.56 88.6783 6.776 88.6783 9.112V20.76C88.6783 22.36 87.4943 23.288 86.1503 23.288C84.7423 23.288 83.5583 22.36 83.5583 20.76V9.272C83.5583 3.352 86.1503 0.471998 90.9823 0.471998C94.6623 0.471998 96.9023 2.104 97.8303 4.312C98.7583 2.104 100.966 0.471998 104.614 0.471998C109.446 0.471998 112.166 3.352 112.166 9.272V20.76C112.166 22.36 110.982 23.288 109.574 23.288C108.23 23.288 107.014 22.36 107.014 20.76ZM124.865 23.64C118.369 23.64 114.081 19.096 114.081 11.864C114.081 4.664 118.369 0.471998 124.865 0.471998C131.393 0.471998 135.681 4.664 135.681 11.864C135.681 19.096 131.393 23.64 124.865 23.64ZM124.865 18.264C128.417 18.264 130.785 15.704 130.785 11.864C130.785 8.056 128.417 5.528 124.865 5.528C121.345 5.528 119.009 8.056 119.009 11.864C119.009 15.704 121.345 18.264 124.865 18.264ZM154.091 23H147.499C145.515 23 144.299 22.168 144.299 20.44C144.299 18.68 145.579 17.88 147.499 17.88H150.699C149.963 14.712 147.787 9.112 146.251 7.32C144.523 9.72 142.315 15.16 141.227 19.704C140.683 22.008 140.107 23.256 138.315 23.256C136.427 23.256 135.723 22.072 135.723 20.696C135.723 18.872 136.747 15.512 138.187 11.992C139.915 7.768 142.891 0.792 146.219 0.792C149.547 0.792 152.523 7.736 154.219 11.992C155.627 15.48 156.651 18.712 156.651 20.6C156.651 22.04 156.043 23 154.091 23Z"/>
</mask>
<path d="M24.608 20.76V9.112C24.608 6.776 23.424 5.56 21.216 5.56C19.072 5.56 17.856 7 17.856 9.176V20.824C17.856 22.456 16.8 23.288 15.424 23.288C14.016 23.288 12.992 22.456 12.992 20.824V9.176C12.992 7 11.808 5.56 9.664 5.56C7.456 5.56 6.272 6.776 6.272 9.112V20.76C6.272 22.36 5.088 23.288 3.744 23.288C2.336 23.288 1.152 22.36 1.152 20.76V9.272C1.152 3.352 3.744 0.471998 8.576 0.471998C12.256 0.471998 14.496 2.104 15.424 4.312C16.352 2.104 18.56 0.471998 22.208 0.471998C27.04 0.471998 29.76 3.352 29.76 9.272V20.76C29.76 22.36 28.576 23.288 27.168 23.288C25.824 23.288 24.608 22.36 24.608 20.76ZM42.459 23.64C35.963 23.64 31.675 19.096 31.675 11.864C31.675 4.664 35.963 0.471998 42.459 0.471998C48.987 0.471998 53.275 4.664 53.275 11.864C53.275 19.096 48.987 23.64 42.459 23.64ZM42.459 18.264C46.011 18.264 48.379 15.704 48.379 11.864C48.379 8.056 46.011 5.528 42.459 5.528C38.939 5.528 36.603 8.056 36.603 11.864C36.603 15.704 38.939 18.264 42.459 18.264ZM71.6843 23H65.0923C63.1083 23 61.8923 22.168 61.8923 20.44C61.8923 18.68 63.1723 17.88 65.0923 17.88H68.2923C67.5563 14.712 65.3803 9.112 63.8443 7.32C62.1163 9.72 59.9083 15.16 58.8203 19.704C58.2763 22.008 57.7003 23.256 55.9083 23.256C54.0203 23.256 53.3163 22.072 53.3163 20.696C53.3163 18.872 54.3403 15.512 55.7803 11.992C57.5083 7.768 60.4843 0.792 63.8123 0.792C67.1403 0.792 70.1163 7.736 71.8123 11.992C73.2203 15.48 74.2443 18.712 74.2443 20.6C74.2443 22.04 73.6363 23 71.6843 23ZM107.014 20.76V9.112C107.014 6.776 105.83 5.56 103.622 5.56C101.478 5.56 100.262 7 100.262 9.176V20.824C100.262 22.456 99.2063 23.288 97.8303 23.288C96.4223 23.288 95.3983 22.456 95.3983 20.824V9.176C95.3983 7 94.2143 5.56 92.0703 5.56C89.8623 5.56 88.6783 6.776 88.6783 9.112V20.76C88.6783 22.36 87.4943 23.288 86.1503 23.288C84.7423 23.288 83.5583 22.36 83.5583 20.76V9.272C83.5583 3.352 86.1503 0.471998 90.9823 0.471998C94.6623 0.471998 96.9023 2.104 97.8303 4.312C98.7583 2.104 100.966 0.471998 104.614 0.471998C109.446 0.471998 112.166 3.352 112.166 9.272V20.76C112.166 22.36 110.982 23.288 109.574 23.288C108.23 23.288 107.014 22.36 107.014 20.76ZM124.865 23.64C118.369 23.64 114.081 19.096 114.081 11.864C114.081 4.664 118.369 0.471998 124.865 0.471998C131.393 0.471998 135.681 4.664 135.681 11.864C135.681 19.096 131.393 23.64 124.865 23.64ZM124.865 18.264C128.417 18.264 130.785 15.704 130.785 11.864C130.785 8.056 128.417 5.528 124.865 5.528C121.345 5.528 119.009 8.056 119.009 11.864C119.009 15.704 121.345 18.264 124.865 18.264ZM154.091 23H147.499C145.515 23 144.299 22.168 144.299 20.44C144.299 18.68 145.579 17.88 147.499 17.88H150.699C149.963 14.712 147.787 9.112 146.251 7.32C144.523 9.72 142.315 15.16 141.227 19.704C140.683 22.008 140.107 23.256 138.315 23.256C136.427 23.256 135.723 22.072 135.723 20.696C135.723 18.872 136.747 15.512 138.187 11.992C139.915 7.768 142.891 0.792 146.219 0.792C149.547 0.792 152.523 7.736 154.219 11.992C155.627 15.48 156.651 18.712 156.651 20.6C156.651 22.04 156.043 23 154.091 23Z" fill="white"/>
<path d="M15.424 4.312L15.2396 4.38949L15.424 4.82818L15.6084 4.38949L15.424 4.312ZM24.608 20.76H24.808V9.112H24.608H24.408V20.76H24.608ZM24.608 9.112H24.808C24.808 7.91247 24.5039 6.96709 23.8843 6.32151C23.2634 5.67455 22.3559 5.36 21.216 5.36V5.56V5.76C22.2841 5.76 23.0726 6.05345 23.5957 6.59849C24.1201 7.1449 24.408 7.97552 24.408 9.112H24.608ZM21.216 5.56V5.36C20.0969 5.36 19.1995 5.73737 18.5837 6.41779C17.9703 7.09555 17.656 8.05202 17.656 9.176H17.856H18.056C18.056 8.12398 18.3497 7.27245 18.8803 6.68621C19.4085 6.10263 20.1911 5.76 21.216 5.76V5.56ZM17.856 9.176H17.656V20.824H17.856H18.056V9.176H17.856ZM17.856 20.824H17.656C17.656 21.5951 17.4079 22.1548 17.0186 22.5226C16.6274 22.8923 16.0725 23.088 15.424 23.088V23.288V23.488C16.1515 23.488 16.8126 23.2677 17.2934 22.8134C17.7761 22.3572 18.056 21.6849 18.056 20.824H17.856ZM15.424 23.288V23.088C14.7586 23.088 14.2045 22.8918 13.818 22.5233C13.4333 22.1563 13.192 21.5969 13.192 20.824H12.992H12.792C12.792 21.6831 13.0627 22.3557 13.542 22.8127C14.0195 23.2682 14.6814 23.488 15.424 23.488V23.288ZM12.992 20.824H13.192V9.176H12.992H12.792V20.824H12.992ZM12.992 9.176H13.192C13.192 8.05333 12.8864 7.09699 12.2812 6.41883C11.6732 5.73753 10.7832 5.36 9.664 5.36V5.56V5.76C10.6888 5.76 11.4628 6.10246 11.9828 6.68517C12.5056 7.27101 12.792 8.12267 12.792 9.176H12.992ZM9.664 5.56V5.36C8.52415 5.36 7.61661 5.67455 6.9957 6.32151C6.37612 6.96709 6.072 7.91247 6.072 9.112H6.272H6.472C6.472 7.97552 6.75988 7.1449 7.2843 6.59849C7.80739 6.05345 8.59585 5.76 9.664 5.76V5.56ZM6.272 9.112H6.072V20.76H6.272H6.472V9.112H6.272ZM6.272 20.76H6.072C6.072 21.5075 5.79691 22.0855 5.37572 22.4776C4.95233 22.8718 4.37056 23.088 3.744 23.088V23.288V23.488C4.46144 23.488 5.14367 23.2402 5.64828 22.7704C6.15509 22.2985 6.472 21.6125 6.472 20.76H6.272ZM3.744 23.288V23.088C3.08325 23.088 2.48548 22.8704 2.05503 22.4765C1.62694 22.0847 1.352 21.5074 1.352 20.76H1.152H0.952C0.952 21.6126 1.26906 22.2993 1.78497 22.7715C2.29852 23.2416 2.99675 23.488 3.744 23.488V23.288ZM1.152 20.76H1.352V9.272H1.152H0.952V20.76H1.152ZM1.152 9.272H1.352C1.352 6.33691 1.99511 4.19172 3.20382 2.78219C4.40769 1.37832 6.20076 0.671998 8.576 0.671998V0.471998V0.271998C6.11924 0.271998 4.20031 1.00568 2.90018 2.52181C1.60489 4.03228 0.952 6.28709 0.952 9.272H1.152ZM8.576 0.471998V0.671998C12.1902 0.671998 14.3482 2.2684 15.2396 4.38949L15.424 4.312L15.6084 4.23451C14.6438 1.93959 12.3218 0.271998 8.576 0.271998V0.471998ZM15.424 4.312L15.6084 4.38949C16.5004 2.26711 18.6274 0.671998 22.208 0.671998V0.471998V0.271998C18.4926 0.271998 16.2036 1.94089 15.2396 4.23451L15.424 4.312ZM22.208 0.471998V0.671998C24.5835 0.671998 26.4097 1.37854 27.6458 2.78408C28.8859 4.19409 29.56 6.33903 29.56 9.272H29.76H29.96C29.96 6.28497 29.2741 4.02991 27.9462 2.51992C26.6143 1.00546 24.6645 0.271998 22.208 0.271998V0.471998ZM29.76 9.272H29.56V20.76H29.76H29.96V9.272H29.76ZM29.76 20.76H29.56C29.56 21.5074 29.2851 22.0847 28.857 22.4765C28.4265 22.8704 27.8287 23.088 27.168 23.088V23.288V23.488C27.9153 23.488 28.6135 23.2416 29.127 22.7715C29.6429 22.2993 29.96 21.6126 29.96 20.76H29.76ZM27.168 23.288V23.088C25.9174 23.088 24.808 22.2332 24.808 20.76H24.608H24.408C24.408 22.4868 25.7306 23.488 27.168 23.488V23.288ZM42.459 23.64V23.44C39.2597 23.44 36.6195 22.3224 34.7779 20.3283C32.9349 18.3327 31.875 15.4408 31.875 11.864H31.675H31.475C31.475 15.5192 32.5591 18.5153 34.4841 20.5997C36.4105 22.6856 39.1623 23.84 42.459 23.84V23.64ZM31.675 11.864H31.875C31.875 8.3037 32.9345 5.50982 34.7748 3.60704C36.6145 1.70483 39.2549 0.671998 42.459 0.671998V0.471998V0.271998C39.1671 0.271998 36.4155 1.33517 34.4872 3.32896C32.5595 5.32218 31.475 8.2243 31.475 11.864H31.675ZM42.459 0.471998V0.671998C45.6794 0.671998 48.3278 1.705 50.1714 3.60719C52.0155 5.50992 53.075 8.30371 53.075 11.864H53.275H53.475C53.475 8.22429 52.3905 5.32208 50.4586 3.32881C48.5262 1.335 45.7666 0.271998 42.459 0.271998V0.471998ZM53.275 11.864H53.075C53.075 15.4408 52.0151 18.3326 50.1682 20.3282C48.3228 22.3222 45.6746 23.44 42.459 23.44V23.64V23.84C45.7714 23.84 48.5312 22.6858 50.4618 20.5998C52.3909 18.5154 53.475 15.5192 53.475 11.864H53.275ZM42.459 18.264V18.464C44.2854 18.464 45.8205 17.8045 46.8978 16.6398C47.9739 15.4765 48.579 13.825 48.579 11.864H48.379H48.179C48.179 13.743 47.6001 15.2915 46.6042 16.3682C45.6095 17.4435 44.1846 18.064 42.459 18.064V18.264ZM48.379 11.864H48.579C48.579 9.91853 47.9736 8.2827 46.8971 7.1314C45.8195 5.9789 44.2846 5.328 42.459 5.328V5.528V5.728C44.1854 5.728 45.6105 6.3411 46.6049 7.4046C47.6004 8.4693 48.179 10.0015 48.179 11.864H48.379ZM42.459 5.528V5.328C40.6488 5.328 39.1296 5.97936 38.0641 7.13226C37 8.28369 36.403 9.91927 36.403 11.864H36.603H36.803C36.803 10.0007 37.374 8.46831 38.3579 7.40374C39.3404 6.34064 40.7492 5.728 42.459 5.728V5.528ZM36.603 11.864H36.403C36.403 13.8243 36.9997 15.4755 38.0634 16.639C39.1286 17.804 40.648 18.464 42.459 18.464V18.264V18.064C40.75 18.064 39.3414 17.444 38.3586 16.369C37.3743 15.2925 36.803 13.7437 36.803 11.864H36.603ZM68.2923 17.88V18.08H68.544L68.4871 17.8347L68.2923 17.88ZM63.8442 7.32L63.9961 7.18984L63.8306 6.99672L63.6819 7.20314L63.8442 7.32ZM58.8203 19.704L58.6257 19.6574L58.6256 19.658L58.8203 19.704ZM55.7803 11.992L55.5951 11.9163L55.7803 11.992ZM71.8122 11.992L71.6265 12.066L71.6268 12.0669L71.8122 11.992ZM71.6842 23V22.8H65.0923V23V23.2H71.6842V23ZM65.0923 23V22.8C64.1238 22.8 63.3738 22.5963 62.8701 22.2094C62.375 21.8291 62.0923 21.2522 62.0923 20.44H61.8923H61.6922C61.6922 21.3558 62.0175 22.0589 62.6264 22.5266C63.2267 22.9877 64.0767 23.2 65.0923 23.2V23ZM61.8923 20.44H62.0923C62.0923 19.6143 62.3892 19.0373 62.8923 18.66C63.4045 18.2758 64.1556 18.08 65.0923 18.08V17.88V17.68C64.1089 17.68 63.26 17.8842 62.6523 18.34C62.0353 18.8027 61.6922 19.5057 61.6922 20.44H61.8923ZM65.0923 17.88V18.08H68.2923V17.88V17.68H65.0923V17.88ZM68.2923 17.88L68.4871 17.8347C68.116 16.2374 67.3841 14.0349 66.5533 12.0081C65.7256 9.98883 64.7874 8.11301 63.9961 7.18984L63.8442 7.32L63.6924 7.45016C64.4371 8.31899 65.3549 10.1392 66.1832 12.1599C67.0084 14.1731 67.7325 16.3546 68.0974 17.9253L68.2923 17.88ZM63.8442 7.32L63.6819 7.20314C61.9325 9.63288 59.7167 15.1011 58.6257 19.6574L58.8203 19.704L59.0148 19.7506C60.0998 15.2189 62.3 9.80712 64.0066 7.43686L63.8442 7.32ZM58.8203 19.704L58.6256 19.658C58.3533 20.8115 58.0802 21.6626 57.6705 22.2264C57.4688 22.5039 57.2361 22.7085 56.9553 22.8452C56.6736 22.9822 56.3329 23.056 55.9082 23.056V23.256V23.456C56.3796 23.456 56.7829 23.3738 57.1302 23.2048C57.4784 23.0355 57.7597 22.7841 57.994 22.4616C58.4563 21.8254 58.7432 20.9005 59.0149 19.75L58.8203 19.704ZM55.9082 23.256V23.056C55.0081 23.056 54.4203 22.7755 54.0544 22.3598C53.6844 21.9396 53.5163 21.3528 53.5163 20.696H53.3162H53.1162C53.1162 21.4152 53.3001 22.1084 53.7541 22.6242C54.2122 23.1445 54.9204 23.456 55.9082 23.456V23.256ZM53.3162 20.696H53.5163C53.5163 19.8132 53.7656 18.5394 54.2004 17.0355C54.6339 15.5361 55.2473 13.823 55.9654 12.0677L55.7803 11.992L55.5951 11.9163C54.8732 13.681 54.2546 15.4079 53.8161 16.9244C53.3789 18.4366 53.1162 19.7548 53.1162 20.696H53.3162ZM55.7803 11.992L55.9654 12.0677C56.8298 9.95465 58.0005 7.16843 59.3673 4.91161C60.0509 3.78294 60.7777 2.79651 61.5325 2.09444C62.2889 1.39079 63.0522 0.992 63.8122 0.992V0.792V0.592C62.9083 0.592 62.0516 1.06521 61.26 1.80156C60.4668 2.53949 59.7176 3.56106 59.0252 4.70439C57.64 6.99157 56.4587 9.80535 55.5951 11.9163L55.7803 11.992ZM63.8122 0.792V0.992C64.5726 0.992 65.336 1.38909 66.0917 2.09013C66.8459 2.78966 67.5717 3.77301 68.2531 4.89952C69.6157 7.15193 70.7785 9.93807 71.6265 12.066L71.8122 11.992L71.998 11.918C71.15 9.78993 69.9768 6.97606 68.5954 4.69248C67.9048 3.55099 67.1566 2.53234 66.3638 1.79687C65.5725 1.06291 64.7159 0.592 63.8122 0.592V0.792ZM71.8122 11.992L71.6268 12.0669C72.3293 13.8072 72.9348 15.4806 73.3643 16.952C73.7949 18.4274 74.0443 19.6852 74.0443 20.6H74.2442H74.4443C74.4443 19.6268 74.1816 18.3246 73.7482 16.84C73.3138 15.3514 72.7032 13.6648 71.9977 11.9171L71.8122 11.992ZM74.2442 20.6H74.0443C74.0443 21.2968 73.8965 21.8361 73.5507 22.2028C73.207 22.5674 72.6306 22.8 71.6842 22.8V23V23.2C72.6899 23.2 73.3935 22.9526 73.8418 22.4772C74.288 22.0039 74.4443 21.3432 74.4443 20.6H74.2442ZM97.8303 4.312L97.6459 4.38949L97.8303 4.82818L98.0146 4.38949L97.8303 4.312ZM107.014 20.76H107.214V9.112H107.014H106.814V20.76H107.014ZM107.014 9.112H107.214C107.214 7.91247 106.91 6.96709 106.291 6.32151C105.67 5.67455 104.762 5.36 103.622 5.36V5.56V5.76C104.69 5.76 105.479 6.05345 106.002 6.59849C106.526 7.1449 106.814 7.97552 106.814 9.112H107.014ZM103.622 5.56V5.36C102.503 5.36 101.606 5.73737 100.99 6.41779C100.377 7.09555 100.062 8.05202 100.062 9.176H100.262H100.462C100.462 8.12398 100.756 7.27245 101.287 6.68621C101.815 6.10263 102.597 5.76 103.622 5.76V5.56ZM100.262 9.176H100.062V20.824H100.262H100.462V9.176H100.262ZM100.262 20.824H100.062C100.062 21.5951 99.8141 22.1548 99.4249 22.5226C99.0336 22.8923 98.4787 23.088 97.8303 23.088V23.288V23.488C98.5578 23.488 99.2189 23.2677 99.6996 22.8134C100.182 22.3572 100.462 21.6849 100.462 20.824H100.262ZM97.8303 23.288V23.088C97.1648 23.088 96.6107 22.8918 96.2243 22.5233C95.8395 22.1563 95.5983 21.5969 95.5983 20.824H95.3983H95.1982C95.1982 21.6831 95.469 22.3557 95.9482 22.8127C96.4258 23.2682 97.0877 23.488 97.8303 23.488V23.288ZM95.3983 20.824H95.5983V9.176H95.3983H95.1982V20.824H95.3983ZM95.3983 9.176H95.5983C95.5983 8.05333 95.2927 7.09699 94.6875 6.41883C94.0795 5.73753 93.1895 5.36 92.0703 5.36V5.56V5.76C93.095 5.76 93.869 6.10246 94.389 6.68517C94.9118 7.27101 95.1982 8.12267 95.1982 9.176H95.3983ZM92.0703 5.56V5.36C90.9304 5.36 90.0229 5.67455 89.402 6.32151C88.7824 6.96709 88.4782 7.91247 88.4782 9.112H88.6783H88.8783C88.8783 7.97552 89.1661 7.1449 89.6905 6.59849C90.2136 6.05345 91.0021 5.76 92.0703 5.76V5.56ZM88.6783 9.112H88.4782V20.76H88.6783H88.8783V9.112H88.6783ZM88.6783 20.76H88.4782C88.4782 21.5075 88.2032 22.0855 87.782 22.4776C87.3586 22.8718 86.7768 23.088 86.1503 23.088V23.288V23.488C86.8677 23.488 87.5499 23.2402 88.0545 22.7704C88.5613 22.2985 88.8783 21.6125 88.8783 20.76H88.6783ZM86.1503 23.288V23.088C85.4895 23.088 84.8917 22.8704 84.4613 22.4765C84.0332 22.0847 83.7582 21.5074 83.7582 20.76H83.5583H83.3583C83.3583 21.6126 83.6753 22.2993 84.1912 22.7715C84.7048 23.2416 85.403 23.488 86.1503 23.488V23.288ZM83.5583 20.76H83.7582V9.272H83.5583H83.3583V20.76H83.5583ZM83.5583 9.272H83.7582C83.7582 6.33691 84.4014 4.19172 85.6101 2.78219C86.8139 1.37832 88.607 0.671998 90.9823 0.671998V0.471998V0.271998C88.5255 0.271998 86.6066 1.00568 85.3064 2.52181C84.0111 4.03228 83.3583 6.28709 83.3583 9.272H83.5583ZM90.9823 0.471998V0.671998C94.5965 0.671998 96.7544 2.2684 97.6459 4.38949L97.8303 4.312L98.0146 4.23451C97.0501 1.93959 94.7281 0.271998 90.9823 0.271998V0.471998ZM97.8303 4.312L98.0146 4.38949C98.9066 2.26711 101.034 0.671998 104.614 0.671998V0.471998V0.271998C100.899 0.271998 98.6099 1.94089 97.6459 4.23451L97.8303 4.312ZM104.614 0.471998V0.671998C106.99 0.671998 108.816 1.37854 110.052 2.78408C111.292 4.19409 111.966 6.33903 111.966 9.272H112.166H112.366C112.366 6.28497 111.68 4.02991 110.352 2.51992C109.021 1.00546 107.071 0.271998 104.614 0.271998V0.471998ZM112.166 9.272H111.966V20.76H112.166H112.366V9.272H112.166ZM112.166 20.76H111.966C111.966 21.5074 111.691 22.0847 111.263 22.4765C110.833 22.8704 110.235 23.088 109.574 23.088V23.288V23.488C110.322 23.488 111.02 23.2416 111.533 22.7715C112.049 22.2993 112.366 21.6126 112.366 20.76H112.166ZM109.574 23.288V23.088C108.324 23.088 107.214 22.2332 107.214 20.76H107.014H106.814C106.814 22.4868 108.137 23.488 109.574 23.488V23.288ZM124.865 23.64V23.44C121.666 23.44 119.026 22.3224 117.184 20.3283C115.341 18.3327 114.281 15.4408 114.281 11.864H114.081H113.881C113.881 15.5192 114.965 18.5153 116.89 20.5997C118.817 22.6856 121.569 23.84 124.865 23.84V23.64ZM114.081 11.864H114.281C114.281 8.3037 115.341 5.50982 117.181 3.60704C119.021 1.70483 121.661 0.671998 124.865 0.671998V0.471998V0.271998C121.573 0.271998 118.822 1.33517 116.893 3.32896C114.966 5.32218 113.881 8.2243 113.881 11.864H114.081ZM124.865 0.471998V0.671998C128.086 0.671998 130.734 1.705 132.578 3.60719C134.422 5.50992 135.481 8.30371 135.481 11.864H135.681H135.881C135.881 8.22429 134.797 5.32208 132.865 3.32881C130.932 1.335 128.173 0.271998 124.865 0.271998V0.471998ZM135.681 11.864H135.481C135.481 15.4408 134.421 18.3326 132.574 20.3282C130.729 22.3222 128.081 23.44 124.865 23.44V23.64V23.84C128.178 23.84 130.938 22.6858 132.868 20.5998C134.797 18.5154 135.881 15.5192 135.881 11.864H135.681ZM124.865 18.264V18.464C126.692 18.464 128.227 17.8045 129.304 16.6398C130.38 15.4765 130.985 13.825 130.985 11.864H130.785H130.585C130.585 13.743 130.006 15.2915 129.01 16.3682C128.016 17.4435 126.591 18.064 124.865 18.064V18.264ZM130.785 11.864H130.985C130.985 9.91853 130.38 8.2827 129.303 7.1314C128.226 5.9789 126.691 5.328 124.865 5.328V5.528V5.728C126.592 5.728 128.017 6.3411 129.011 7.4046C130.007 8.4693 130.585 10.0015 130.585 11.864H130.785ZM124.865 5.528V5.328C123.055 5.328 121.536 5.97936 120.47 7.13226C119.406 8.28369 118.809 9.91927 118.809 11.864H119.009H119.209C119.209 10.0007 119.78 8.46831 120.764 7.40374C121.747 6.34064 123.155 5.728 124.865 5.728V5.528ZM119.009 11.864H118.809C118.809 13.8243 119.406 15.4755 120.47 16.639C121.535 17.804 123.054 18.464 124.865 18.464V18.264V18.064C123.156 18.064 121.748 17.444 120.765 16.369C119.781 15.2925 119.209 13.7437 119.209 11.864H119.009ZM150.699 17.88V18.08H150.95L150.893 17.8347L150.699 17.88ZM146.251 7.32L146.402 7.18984L146.237 6.99672L146.088 7.20314L146.251 7.32ZM141.227 19.704L141.032 19.6574L141.032 19.658L141.227 19.704ZM138.186 11.992L138.001 11.9163L138.186 11.992ZM154.219 11.992L154.033 12.066L154.033 12.0669L154.219 11.992ZM154.09 23V22.8H147.499V23V23.2H154.09V23ZM147.499 23V22.8C146.53 22.8 145.78 22.5963 145.276 22.2094C144.781 21.8291 144.499 21.2522 144.499 20.44H144.298H144.098C144.098 21.3558 144.424 22.0589 145.033 22.5266C145.633 22.9877 146.483 23.2 147.499 23.2V23ZM144.298 20.44H144.499C144.499 19.6143 144.795 19.0373 145.299 18.66C145.811 18.2758 146.562 18.08 147.499 18.08V17.88V17.68C146.515 17.68 145.666 17.8842 145.059 18.34C144.442 18.8027 144.098 19.5057 144.098 20.44H144.298ZM147.499 17.88V18.08H150.699V17.88V17.68H147.499V17.88ZM150.699 17.88L150.893 17.8347C150.522 16.2374 149.79 14.0349 148.96 12.0081C148.132 9.98883 147.194 8.11301 146.402 7.18984L146.251 7.32L146.099 7.45016C146.843 8.31899 147.761 10.1392 148.589 12.1599C149.415 14.1731 150.139 16.3546 150.504 17.9253L150.699 17.88ZM146.251 7.32L146.088 7.20314C144.339 9.63288 142.123 15.1011 141.032 19.6574L141.227 19.704L141.421 19.7506C142.506 15.2189 144.706 9.80712 146.413 7.43686L146.251 7.32ZM141.227 19.704L141.032 19.658C140.76 20.8115 140.486 21.6626 140.077 22.2264C139.875 22.5039 139.642 22.7085 139.362 22.8452C139.08 22.9822 138.739 23.056 138.314 23.056V23.256V23.456C138.786 23.456 139.189 23.3738 139.536 23.2048C139.885 23.0355 140.166 22.7841 140.4 22.4616C140.863 21.8254 141.149 20.9005 141.421 19.75L141.227 19.704ZM138.314 23.256V23.056C137.414 23.056 136.827 22.7755 136.461 22.3598C136.091 21.9396 135.923 21.3528 135.923 20.696H135.723H135.523C135.523 21.4152 135.706 22.1084 136.16 22.6242C136.618 23.1445 137.327 23.456 138.314 23.456V23.256ZM135.723 20.696H135.923C135.923 19.8132 136.172 18.5394 136.607 17.0355C137.04 15.5361 137.654 13.823 138.372 12.0677L138.186 11.992L138.001 11.9163C137.279 13.681 136.661 15.4079 136.222 16.9244C135.785 18.4366 135.523 19.7548 135.523 20.696H135.723ZM138.186 11.992L138.372 12.0677C139.236 9.95465 140.407 7.16843 141.774 4.91161C142.457 3.78294 143.184 2.79651 143.939 2.09444C144.695 1.39079 145.458 0.992 146.219 0.992V0.792V0.592C145.315 0.592 144.458 1.06521 143.666 1.80156C142.873 2.53949 142.124 3.56106 141.431 4.70439C140.046 6.99157 138.865 9.80535 138.001 11.9163L138.186 11.992ZM146.219 0.792V0.992C146.979 0.992 147.742 1.38909 148.498 2.09013C149.252 2.78966 149.978 3.77301 150.659 4.89952C152.022 7.15193 153.185 9.93807 154.033 12.066L154.219 11.992L154.404 11.918C153.556 9.78993 152.383 6.97606 151.002 4.69248C150.311 3.55099 149.563 2.53234 148.77 1.79687C147.979 1.06291 147.122 0.592 146.219 0.592V0.792ZM154.219 11.992L154.033 12.0669C154.736 13.8072 155.341 15.4806 155.771 16.952C156.201 18.4274 156.451 19.6852 156.451 20.6H156.65H156.85C156.85 19.6268 156.588 18.3246 156.154 16.84C155.72 15.3514 155.109 13.6648 154.404 11.9171L154.219 11.992ZM156.65 20.6H156.451C156.451 21.2968 156.303 21.8361 155.957 22.2028C155.613 22.5674 155.037 22.8 154.09 22.8V23V23.2C155.096 23.2 155.8 22.9526 156.248 22.4772C156.694 22.0039 156.85 21.3432 156.85 20.6H156.65Z" fill="white" mask="url(#path-1-outside-1_880_22144)"/>
</svg>
