<svg width="143" height="18" viewBox="0 0 143 18" fill="none" xmlns="http://www.w3.org/2000/svg">
<path d="M18.456 15.32V6.584C18.456 4.832 17.568 3.92 15.912 3.92C14.304 3.92 13.392 5 13.392 6.632V15.368C13.392 16.592 12.6 17.216 11.568 17.216C10.512 17.216 9.744 16.592 9.744 15.368V6.632C9.744 5 8.856 3.92 7.248 3.92C5.592 3.92 4.704 4.832 4.704 6.584V15.32C4.704 16.52 3.816 17.216 2.808 17.216C1.752 17.216 0.864 16.52 0.864 15.32V6.704C0.864 2.264 2.808 0.103999 6.432 0.103999C9.192 0.103999 10.872 1.328 11.568 2.984C12.264 1.328 13.92 0.103999 16.656 0.103999C20.28 0.103999 22.32 2.264 22.32 6.704V15.32C22.32 16.52 21.432 17.216 20.376 17.216C19.368 17.216 18.456 16.52 18.456 15.32ZM31.8443 17.48C26.9723 17.48 23.7563 14.072 23.7563 8.648C23.7563 3.248 26.9723 0.103999 31.8443 0.103999C36.7403 0.103999 39.9563 3.248 39.9563 8.648C39.9563 14.072 36.7403 17.48 31.8443 17.48ZM31.8443 13.448C34.5083 13.448 36.2843 11.528 36.2843 8.648C36.2843 5.792 34.5083 3.896 31.8443 3.896C29.2043 3.896 27.4523 5.792 27.4523 8.648C27.4523 11.528 29.2043 13.448 31.8443 13.448ZM53.7632 17H48.8192C47.3312 17 46.4192 16.376 46.4192 15.08C46.4192 13.76 47.3792 13.16 48.8192 13.16H51.2192C50.6672 10.784 49.0352 6.584 47.8832 5.24C46.5872 7.04 44.9312 11.12 44.1152 14.528C43.7072 16.256 43.2752 17.192 41.9312 17.192C40.5152 17.192 39.9872 16.304 39.9872 15.272C39.9872 13.904 40.7552 11.384 41.8352 8.744C43.1312 5.576 45.3632 0.344 47.8592 0.344C50.3552 0.344 52.5872 5.552 53.8592 8.744C54.9152 11.36 55.6832 13.784 55.6832 15.2C55.6832 16.28 55.2272 17 53.7632 17ZM62.6447 10.784V2.264C62.6447 1.136 63.4367 0.344 64.5647 0.344C65.6447 0.344 66.4607 1.16 66.4607 2.264V10.784C66.4607 12.488 67.0607 13.76 69.0527 13.76C70.4447 13.76 70.9487 12.704 72.0767 12.704C73.0847 12.704 73.6847 13.4 73.6847 14.408C73.6847 16.76 70.6847 17.456 68.6447 17.456C64.6607 17.456 62.6447 14.696 62.6447 10.784ZM81.0996 10.088H80.6196C79.3956 10.088 78.1716 10.328 78.1716 11.792C78.1716 13.352 79.6356 13.712 80.9556 13.712C81.6996 13.712 82.4436 13.568 83.1396 13.184C83.9316 12.752 84.5316 12.272 85.4676 12.272C86.3796 12.272 87.0516 12.944 87.0516 14.024C87.0516 16.664 83.4276 17.48 81.0756 17.48C78.0036 17.48 74.3316 16.52 74.3316 12.632C74.3316 10.736 75.3876 8.96 77.3316 8.528C75.4596 7.952 74.6196 6.584 74.6196 4.688C74.6196 1.064 78.1236 0.103999 81.0756 0.103999C83.2116 0.103999 87.0036 0.847999 87.0036 3.416C87.0036 4.472 86.3796 5.144 85.3236 5.144C83.8356 5.144 83.1636 3.752 80.6196 3.752C79.6596 3.752 78.2436 4.256 78.2436 5.6C78.2436 7.04 79.3476 7.28 80.5716 7.28H81.0996C81.9396 7.28 82.7316 7.568 82.7316 8.672C82.7316 9.8 81.9636 10.088 81.0996 10.088ZM92.3664 15.296V4.376H89.4624C88.2624 4.376 87.5424 3.488 87.5424 2.432C87.5424 1.376 88.2624 0.487999 89.4624 0.487999H99.0624C100.262 0.487999 100.982 1.376 100.982 2.432C100.982 3.488 100.262 4.376 99.0624 4.376H96.2064V15.296C96.2064 16.568 95.3184 17.216 94.2624 17.216C93.2304 17.216 92.3664 16.568 92.3664 15.296ZM106.359 15.296V4.376H103.455C102.255 4.376 101.535 3.488 101.535 2.432C101.535 1.376 102.255 0.487999 103.455 0.487999H113.055C114.255 0.487999 114.975 1.376 114.975 2.432C114.975 3.488 114.255 4.376 113.055 4.376H110.199V15.296C110.199 16.568 109.311 17.216 108.255 17.216C107.223 17.216 106.359 16.568 106.359 15.296ZM121.951 10.088H121.471C120.247 10.088 119.023 10.328 119.023 11.792C119.023 13.352 120.487 13.712 121.807 13.712C122.551 13.712 123.295 13.568 123.991 13.184C124.783 12.752 125.383 12.272 126.319 12.272C127.231 12.272 127.903 12.944 127.903 14.024C127.903 16.664 124.279 17.48 121.927 17.48C118.855 17.48 115.183 16.52 115.183 12.632C115.183 10.736 116.239 8.96 118.183 8.528C116.311 7.952 115.471 6.584 115.471 4.688C115.471 1.064 118.975 0.103999 121.927 0.103999C124.063 0.103999 127.855 0.847999 127.855 3.416C127.855 4.472 127.231 5.144 126.175 5.144C124.687 5.144 124.015 3.752 121.471 3.752C120.511 3.752 119.095 4.256 119.095 5.6C119.095 7.04 120.199 7.28 121.423 7.28H121.951C122.791 7.28 123.583 7.568 123.583 8.672C123.583 9.8 122.815 10.088 121.951 10.088ZM142.386 12.416V15.296C142.386 16.496 141.522 17.192 140.466 17.192C139.458 17.192 138.546 16.568 138.546 15.296V12.416C138.546 10.352 137.562 10.112 136.482 10.112H135.738C134.994 10.112 134.394 9.776 134.394 8.6C134.394 7.472 135.018 7.232 135.738 7.232H136.506C137.586 7.232 138.57 7.04 138.57 5.6C138.57 4.184 137.37 3.656 135.858 3.656C133.746 3.656 133.098 4.088 133.098 5.264V15.296C133.098 16.496 132.234 17.192 131.178 17.192C130.17 17.192 129.258 16.568 129.258 15.296V3.968C129.258 1.04 131.346 0.103999 135.666 0.103999C138.93 0.103999 142.098 1.064 142.098 4.88C142.098 6.584 141.282 7.952 139.41 8.528C141.33 8.96 142.386 10.304 142.386 12.416Z" fill="white"/>
</svg>
