<svg width="35" height="34" viewBox="0 0 35 34" fill="none" xmlns="http://www.w3.org/2000/svg">
<path d="M8.99723 4.25C13.9411 4.25 18.04 7.86787 18.7909 12.6005C20.4556 10.9422 22.7524 9.91667 25.2888 9.91667H31.6638V13.4583C31.6638 18.544 27.5412 22.6667 22.4555 22.6667H18.9138V29.75H16.0805V18.4167H13.2472C7.7704 18.4167 3.33057 13.9768 3.33057 8.5V4.25H8.99723ZM28.8305 12.75H25.2888C21.7681 12.75 18.9138 15.6042 18.9138 19.125V19.8333H22.4555C25.9763 19.8333 28.8305 16.9792 28.8305 13.4583V12.75ZM8.99723 7.08333H6.1639V8.5C6.1639 12.412 9.33521 15.5833 13.2472 15.5833H16.0805V14.1667C16.0805 10.2547 12.9092 7.08333 8.99723 7.08333Z" fill="black"/>
</svg>
