<svg width="36" height="36" viewBox="0 0 36 36" fill="none" xmlns="http://www.w3.org/2000/svg">
<rect width="36" height="36" rx="18" fill="#E1E1E1"/>
<path d="M18.67 8.68775L27.17 13.4377C27.4195 13.5623 27.6294 13.754 27.776 13.9912C27.9226 14.2284 28.0002 14.5019 28 14.7807V16.2207C28 16.9107 27.44 17.4707 26.75 17.4707H26V25.4707H27C27.2652 25.4707 27.5196 25.5761 27.7071 25.7636C27.8946 25.9512 28 26.2055 28 26.4707C28 26.736 27.8946 26.9903 27.7071 27.1779C27.5196 27.3654 27.2652 27.4707 27 27.4707H9C8.73478 27.4707 8.48043 27.3654 8.29289 27.1779C8.10536 26.9903 8 26.736 8 26.4707C8 26.2055 8.10536 25.9512 8.29289 25.7636C8.48043 25.5761 8.73478 25.4707 9 25.4707H10V17.4707H9.25C8.56 17.4707 8 16.9107 8 16.2207V14.7807C8 14.2587 8.27 13.7787 8.706 13.5067L17.329 8.68775C17.5373 8.58355 17.7671 8.5293 18 8.5293C18.2329 8.5293 18.4617 8.58355 18.67 8.68775ZM24 17.4707H12V25.4707H15V19.4707H17V25.4707H19V19.4707H21V25.4707H24V17.4707ZM18 10.5887L10 15.0887V15.4707H26V15.0887L18 10.5887ZM18 12.4707C18.2652 12.4707 18.5196 12.5761 18.7071 12.7636C18.8946 12.9512 19 13.2055 19 13.4707C19 13.736 18.8946 13.9903 18.7071 14.1779C18.5196 14.3654 18.2652 14.4707 18 14.4707C17.7348 14.4707 17.4804 14.3654 17.2929 14.1779C17.1054 13.9903 17 13.736 17 13.4707C17 13.2055 17.1054 12.9512 17.2929 12.7636C17.4804 12.5761 17.7348 12.4707 18 12.4707Z" fill="#1F1F1F"/>
</svg>
