<svg width="80" height="80" viewBox="0 0 80 80" fill="none" xmlns="http://www.w3.org/2000/svg">
<rect width="80" height="80" rx="40" fill="white"/>
<path d="M40 0C62.0914 0 80 17.9086 80 40C80 51.6377 75.028 62.1124 67.0947 69.4219C61.6981 60.0558 51.586 53.75 40 53.75C28.4139 53.75 18.3009 60.0555 12.9043 69.4219C4.97136 62.1124 0 51.6375 0 40C0 17.9086 17.9086 0 40 0ZM40 15C31.0254 15 23.75 22.2754 23.75 31.25C23.75 40.2246 31.0254 47.5 40 47.5C48.9746 47.5 56.25 40.2246 56.25 31.25C56.25 22.2754 48.9746 15 40 15Z" fill="#C7D5FF"/>
</svg>
