<svg width="50" height="50" viewBox="0 0 50 50" fill="none" xmlns="http://www.w3.org/2000/svg">
<rect x="0.5" y="0.5" width="49" height="49" rx="24.5" fill="#F2F2F2"/>
<rect x="0.5" y="0.5" width="49" height="49" rx="24.5" stroke="#6282E1"/>
<path d="M30.417 35.8337C29.5142 35.8337 28.7469 35.5177 28.1149 34.8857C27.483 34.2538 27.167 33.4864 27.167 32.5837C27.167 32.4753 27.1941 32.2225 27.2482 31.8253L19.6378 27.3837C19.3489 27.6545 19.0149 27.8666 18.6357 28.0201C18.2566 28.1736 17.8503 28.2503 17.417 28.2503C16.5142 28.2503 15.7469 27.9344 15.1149 27.3024C14.483 26.6705 14.167 25.9031 14.167 25.0003C14.167 24.0975 14.483 23.3302 15.1149 22.6982C15.7469 22.0663 16.5142 21.7503 17.417 21.7503C17.8503 21.7503 18.2566 21.8271 18.6357 21.9805C19.0149 22.134 19.3489 22.3462 19.6378 22.617L27.2482 18.1753C27.2121 18.0489 27.1896 17.9271 27.1805 17.8097C27.1715 17.6923 27.167 17.5614 27.167 17.417C27.167 16.5142 27.483 15.7469 28.1149 15.1149C28.7469 14.483 29.5142 14.167 30.417 14.167C31.3198 14.167 32.0871 14.483 32.7191 15.1149C33.351 15.7469 33.667 16.5142 33.667 17.417C33.667 18.3198 33.351 19.0871 32.7191 19.7191C32.0871 20.351 31.3198 20.667 30.417 20.667C29.9837 20.667 29.5774 20.5903 29.1982 20.4368C28.8191 20.2833 28.485 20.0712 28.1962 19.8003L20.5857 24.242C20.6219 24.3684 20.6444 24.4903 20.6535 24.6076C20.6625 24.725 20.667 24.8559 20.667 25.0003C20.667 25.1448 20.6625 25.2757 20.6535 25.393C20.6444 25.5104 20.6219 25.6323 20.5857 25.7587L28.1962 30.2003C28.485 29.9295 28.8191 29.7173 29.1982 29.5639C29.5774 29.4104 29.9837 29.3337 30.417 29.3337C31.3198 29.3337 32.0871 29.6496 32.7191 30.2816C33.351 30.9135 33.667 31.6809 33.667 32.5837C33.667 33.4864 33.351 34.2538 32.7191 34.8857C32.0871 35.5177 31.3198 35.8337 30.417 35.8337Z" fill="#6282E1"/>
</svg>
