<svg width="24" height="28" viewBox="0 0 24 28" fill="none" xmlns="http://www.w3.org/2000/svg">
<path d="M13.73 25C13.5542 25.3031 13.3018 25.5547 12.9982 25.7295C12.6946 25.9044 12.3504 25.9965 12 25.9965C11.6496 25.9965 11.3054 25.9044 11.0018 25.7295C10.6982 25.5547 10.4458 25.3031 10.27 25M18 12C18 10.4087 17.3679 8.88258 16.2426 7.75736C15.1174 6.63214 13.5913 6 12 6C10.4087 6 8.88258 6.63214 7.75736 7.75736C6.63214 8.88258 6 10.4087 6 12C6 19 3 21 3 21H21C21 21 18 19 18 12Z" stroke="#1E1E1E" stroke-width="2" stroke-linecap="round" stroke-linejoin="round"/>
<circle cx="18" cy="6" r="5" fill="#E20938" stroke="white" stroke-width="2"/>
</svg>
