<svg width="50" height="50" viewBox="0 0 50 50" fill="none" xmlns="http://www.w3.org/2000/svg">
<path d="M41.6666 6.25C42.7178 6.24967 43.7303 6.64668 44.5011 7.36145C45.2719 8.07622 45.744 9.05593 45.8229 10.1042L45.8333 10.4167V39.5833C45.8336 40.6345 45.4366 41.647 44.7218 42.4178C44.0071 43.1886 43.0274 43.6607 41.9791 43.7396L41.6666 43.75H8.33329C7.28209 43.7503 6.26961 43.3533 5.49882 42.6385C4.72802 41.9238 4.25588 40.9441 4.17704 39.8958L4.16663 39.5833V10.4167C4.16629 9.36547 4.56331 8.35299 5.27808 7.58219C5.99285 6.8114 6.97255 6.33926 8.02079 6.26042L8.33329 6.25H41.6666ZM20.5812 25.1042L8.79579 36.8896C8.65866 37.0272 8.503 37.145 8.33329 37.2396V39.5833H41.6666V37.2396C41.4969 37.1451 41.3412 37.0272 41.2041 36.8896L35.3125 31L33.8395 32.4729L34.2708 32.9042C34.4642 33.0977 34.6176 33.3275 34.7223 33.5803C34.8269 33.8332 34.8807 34.1042 34.8806 34.3778C34.8805 34.6515 34.8265 34.9224 34.7217 35.1752C34.6169 35.428 34.4633 35.6576 34.2698 35.851C34.0762 36.0445 33.8464 36.1979 33.5936 36.3025C33.3407 36.4071 33.0697 36.4609 32.7961 36.4608C32.5225 36.4607 32.2515 36.4067 31.9987 36.3019C31.746 36.1971 31.5163 36.0436 31.3229 35.85L20.5833 25.1042H20.5812ZM41.6666 10.4167H8.33329V31.4583L18.7395 21.0542C19.1932 20.6007 19.7982 20.3305 20.4387 20.2955C21.0792 20.2605 21.7101 20.4632 22.2104 20.8646L22.4208 21.0521L30.8916 29.525L33.4708 26.9458C33.9244 26.4923 34.5295 26.2222 35.17 26.1872C35.8104 26.1522 36.4413 26.3548 36.9416 26.7563L37.1541 26.9458L41.6666 31.4604V10.4167ZM32.2916 14.5833C33.1204 14.5833 33.9153 14.9126 34.5013 15.4986C35.0874 16.0847 35.4166 16.8795 35.4166 17.7083C35.4166 18.5371 35.0874 19.332 34.5013 19.918C33.9153 20.5041 33.1204 20.8333 32.2916 20.8333C31.4628 20.8333 30.668 20.5041 30.0819 19.918C29.4959 19.332 29.1666 18.5371 29.1666 17.7083C29.1666 16.8795 29.4959 16.0847 30.0819 15.4986C30.668 14.9126 31.4628 14.5833 32.2916 14.5833Z" fill="#C7D5FF"/>
</svg>
