<svg width="50" height="50" viewBox="0 0 50 50" fill="none" xmlns="http://www.w3.org/2000/svg">
<g clip-path="url(#clip0_1318_25774)">
<path d="M41.6665 6.25C42.7177 6.24967 43.7302 6.64668 44.501 7.36145C45.2718 8.07622 45.7439 9.05593 45.8228 10.1042L45.8332 10.4167V39.5833C45.8335 40.6345 45.4365 41.647 44.7217 42.4178C44.007 43.1886 43.0272 43.6607 41.979 43.7396L41.6665 43.75H8.33317C7.28197 43.7503 6.26949 43.3533 5.4987 42.6385C4.7279 41.9238 4.25576 40.9441 4.17692 39.8958L4.1665 39.5833V10.4167C4.16617 9.36547 4.56318 8.35299 5.27796 7.58219C5.99273 6.8114 6.97243 6.33926 8.02067 6.26042L8.33317 6.25H41.6665ZM20.5811 25.1042L8.79567 36.8896C8.65854 37.0272 8.50287 37.145 8.33317 37.2396V39.5833H41.6665V37.2396C41.4968 37.1451 41.3411 37.0272 41.204 36.8896L35.3123 31L33.8394 32.4729L34.2707 32.9042C34.4641 33.0977 34.6175 33.3275 34.7221 33.5803C34.8268 33.8332 34.8806 34.1042 34.8805 34.3778C34.8804 34.6515 34.8264 34.9224 34.7216 35.1752C34.6168 35.428 34.4632 35.6576 34.2696 35.851C34.0761 36.0445 33.8463 36.1979 33.5935 36.3025C33.3406 36.4071 33.0696 36.4609 32.796 36.4608C32.5223 36.4607 32.2514 36.4067 31.9986 36.3019C31.7458 36.1971 31.5162 36.0436 31.3228 35.85L20.5832 25.1042H20.5811ZM41.6665 10.4167H8.33317V31.4583L18.7394 21.0542C19.193 20.6007 19.7981 20.3305 20.4386 20.2955C21.0791 20.2605 21.7099 20.4632 22.2103 20.8646L22.4207 21.0521L30.8915 29.525L33.4707 26.9458C33.9243 26.4923 34.5293 26.2222 35.1698 26.1872C35.8103 26.1522 36.4412 26.3548 36.9415 26.7563L37.154 26.9458L41.6665 31.4604V10.4167ZM32.2915 14.5833C33.1203 14.5833 33.9152 14.9126 34.5012 15.4986C35.0873 16.0847 35.4165 16.8795 35.4165 17.7083C35.4165 18.5371 35.0873 19.332 34.5012 19.918C33.9152 20.5041 33.1203 20.8333 32.2915 20.8333C31.4627 20.8333 30.6678 20.5041 30.0818 19.918C29.4957 19.332 29.1665 18.5371 29.1665 17.7083C29.1665 16.8795 29.4957 16.0847 30.0818 15.4986C30.6678 14.9126 31.4627 14.5833 32.2915 14.5833Z" fill="white"/>
</g>
<defs>
<clipPath id="clip0_1318_25774">
<rect width="50" height="50" fill="white"/>
</clipPath>
</defs>
</svg>
